<?xml version="1.0" encoding="utf-8"?>
<!-- Generator: Adobe Illustrator 18.0.0, SVG Export Plug-In . SVG Version: 6.00 Build 0)  -->
<!DOCTYPE svg PUBLIC "-//W3C//DTD SVG 1.1 Tiny//EN" "http://www.w3.org/Graphics/SVG/1.1/DTD/svg11-tiny.dtd">
<svg version="1.1" baseProfile="tiny" id="Layer_1" xmlns="http://www.w3.org/2000/svg" xmlns:xlink="http://www.w3.org/1999/xlink"
	 x="0px" y="0px" viewBox="0 0 350.7 512" xml:space="preserve">
<path d="M309.8,244.7c-12-15.7-29.2-25.9-51.7-30.7v-1c17.4-6.8,30.8-17.3,40.2-31.5c9.4-14.2,14.1-31,14.1-50.4
	c0-18.4-4.2-34-12.5-46.6c-8.4-12.6-18.5-22.5-30.5-29.7c-5.5-3.4-12-6-19.7-7.7c-7.7-1.7-16-3-24.8-3.8c-4.9-0.5-9.9-0.8-14.8-1.1
	V-1.1h-28.2v42.5c-3.1,0-6.2,0-9.2,0h-49.2V-1.1H95.2v42.5H39.9V407h55.3v50.2h28.2V407h58.4v50.2h28.2V407h6.7c18.1,0,34-3,47.9-9
	c13.8-6,25.4-13.8,34.8-23.6c9.4-9.7,16.5-20.9,21.2-33.5c4.8-12.6,7.2-25.6,7.2-38.9C327.7,279.5,321.7,260.4,309.8,244.7z
	 M88.6,82.4h97.3c10.6,0,20.6,0.6,30,1.8c9.4,1.2,17.7,3.8,24.8,7.9c7.2,4.1,12.8,9.9,16.9,17.4c4.1,7.5,6.1,17.8,6.1,30.7
	c0,19.5-6.1,34-18.2,43.8c-12.1,9.7-32,14.6-59.6,14.6H88.6V82.4z M260.9,348.6c-12.1,11.6-28.9,17.4-50.4,17.4H88.6V239.6h111.1
	c10.2,0,20.1,0.9,29.7,2.8c9.6,1.9,18,5.1,25.3,9.7c7.3,4.6,13.2,10.8,17.7,18.7c4.4,7.9,6.7,17.8,6.7,29.7
	C279,321,273,337,260.9,348.6z"/>
</svg>
