<?xml version="1.0" encoding="utf-8"?>
<!-- Generator: Adobe Illustrator 18.0.0, SVG Export Plug-In . SVG Version: 6.00 Build 0)  -->
<!DOCTYPE svg PUBLIC "-//W3C//DTD SVG 1.1 Tiny//EN" "http://www.w3.org/Graphics/SVG/1.1/DTD/svg11-tiny.dtd">
<svg version="1.1" baseProfile="tiny" id="Layer_1" xmlns="http://www.w3.org/2000/svg" xmlns:xlink="http://www.w3.org/1999/xlink"
	 x="0px" y="0px" viewBox="0 0 285.7 512" xml:space="preserve">
<g>
	<path d="M262.1,110.6c-23.9-23.6-48.3-35.3-73.2-35.3c-25.6,0-46.8,10.9-63.5,32.8c-13.3,17.4-22.9,40.3-28.7,68.6h144.9
		l-13.8,31.2H93.2c-0.3,2.7-0.5,5.5-0.5,8.2c0,2.7,0,5.3,0,7.7c0,2,0,3.9,0,5.6c0,1.7,0.2,3.4,0.5,5.1h127.5l-13.3,31.2H95.7
		c11.3,73.4,43.7,110.1,97.3,110.1c16.4,0,30.9-3.2,43.5-9.7c9.2-4.8,21-13.8,35.3-27.1v53.8c-22.9,14.7-49.2,22-78.8,22
		c-83.6,0-132.6-49.7-146.9-149H6.7l13.8-31.2H44c-0.3-1.7-0.5-3.4-0.5-5.1c0-1.7,0-3.4,0-5.1c0-3.1,0-6,0-8.7
		c0-2.7,0.2-5.3,0.5-7.7H6.7L20,176.6h27.6c8.2-42,23.7-75.1,46.6-99.3c25.6-27.6,58.5-41.5,98.8-41.5c31.1,0,62,10.8,92.7,32.3
		L262.1,110.6z"/>
</g>
</svg>
