<?xml version="1.0" encoding="utf-8"?>
<!-- Generator: Adobe Illustrator 18.0.0, SVG Export Plug-In . SVG Version: 6.00 Build 0)  -->
<!DOCTYPE svg PUBLIC "-//W3C//DTD SVG 1.1 Tiny//EN" "http://www.w3.org/Graphics/SVG/1.1/DTD/svg11-tiny.dtd">
<svg version="1.1" baseProfile="tiny" id="Layer_1" xmlns="http://www.w3.org/2000/svg" xmlns:xlink="http://www.w3.org/1999/xlink"
	 x="0px" y="0px" viewBox="0 0 284.7 512" xml:space="preserve">
<g>
	<path d="M53.8,216.5c-6.8-11.6-12.5-23.7-17.2-36.4c-4.6-12.6-6.9-27.1-6.9-43.5c0-16.4,3.2-31,9.5-43.8
		C45.5,80.1,54,69.3,64.8,60.4c10.8-8.9,23.1-15.7,37.1-20.5c14-4.8,28.8-7.2,44.5-7.2c37.9,0,67.7,11,89.3,33
		c21.7,22,32.2,55,31.5,99.1h-43.5c-0.7-30-7.2-53.2-19.5-69.4C192,79.2,173.6,71.1,149,71.1c-10.2,0-19.8,1.7-28.7,5.1
		c-8.9,3.4-16.6,8.1-23.3,14.1c-6.7,6-11.9,13.1-15.6,21.2c-3.8,8.2-5.6,17.1-5.6,26.6c0,8.2,0.8,15.8,2.6,22.8
		c1.7,7,3.8,13.6,6.4,19.7s5.4,12.1,8.4,17.9c3.1,5.8,6.1,11.8,9.2,17.9h81.4v23h-70.1c2.7,5.5,5.1,11.4,7.2,17.9
		c2,6.5,3.1,13.3,3.1,20.5c0,11.6-1.7,21.9-5.1,31c-3.4,9-7.9,17.4-13.3,25.1c-5.5,7.7-11.8,14.8-18.9,21.2
		c-7.2,6.5-14.5,12.8-22,18.9l1,1c8.9-3.8,17.5-7.2,25.9-10.2c8.4-3.1,17.7-4.6,27.9-4.6c9.9,0,18.8,0.8,26.6,2.5
		c7.8,1.7,15.2,3.3,22,5c6.8,2,13.7,4,20.7,6c7,2,14.4,3,22.3,3c8.2,0,16.3-2,24.3-5.9c8-3.9,15.1-8.3,21.2-13.1l22,34
		c-10.2,9-21.9,15.1-35.1,18.4c-13.1,3.3-26.4,4.9-39.7,4.9c-8.5,0-16.9-1-25.1-3.1c-8.2-2-16.7-4.3-25.6-6.7
		c-8.5-2.7-17.2-5.2-25.9-7.4c-8.7-2.2-18-3.3-27.9-3.3c-9.9,0-18.9,1.6-27.1,4.9C64,402.8,56,407,48.1,412.1l-24.1-33.3
		c7.2-4.8,14.2-10.4,21-16.9c6.8-6.5,12.9-13.6,18.2-21.5c5.3-7.8,9.5-16.2,12.5-25.1c3.1-8.9,4.6-18.3,4.6-28.2
		c0-7.8-1.4-16-4.1-24.6c-2.7-8.5-5.6-16.2-8.7-23H24.1v-23H53.8z"/>
</g>
</svg>
