<?xml version="1.0" encoding="utf-8"?>
<!-- Generator: Adobe Illustrator 18.0.0, SVG Export Plug-In . SVG Version: 6.00 Build 0)  -->
<!DOCTYPE svg PUBLIC "-//W3C//DTD SVG 1.1 Tiny//EN" "http://www.w3.org/Graphics/SVG/1.1/DTD/svg11-tiny.dtd">
<svg version="1.1" baseProfile="tiny" id="Layer_1" xmlns="http://www.w3.org/2000/svg" xmlns:xlink="http://www.w3.org/1999/xlink"
	 x="0px" y="0px" viewBox="0 0 266.3 512" xml:space="preserve">
<g>
	<path d="M185.3,158.2c-1.4,12-4.5,22.7-9.5,32.3c-5,9.6-11.2,18-18.7,25.3c-7.5,7.3-16,13.5-25.6,18.4c-9.6,5-19.5,8.8-29.7,11.5
		L224.3,407h-58.4L75.3,286.7c-9.9-13.3-18.9-23-26.9-28.9c-8-6-16.5-9-25.3-9v-37.4h30.2c10.6,0,20.7-0.8,30.5-2.3
		c9.7-1.5,18.5-4.3,26.4-8.2c7.8-3.9,14.4-9.3,19.7-16.1c5.3-6.8,8.4-15.7,9.5-26.6H13.8L29.2,128h108c-3.1-14-9.7-25.3-20-33.8
		C107,85.6,93.2,81,75.8,80.3h-62l15.4-30.2H254l-15.4,30.2h-74.8c11.6,13,18.6,28.8,21,47.6H254l-15.4,30.2H185.3z"/>
</g>
</svg>
