<?xml version="1.0" encoding="utf-8"?>
<!-- Generator: Adobe Illustrator 18.0.0, SVG Export Plug-In . SVG Version: 6.00 Build 0)  -->
<!DOCTYPE svg PUBLIC "-//W3C//DTD SVG 1.1 Tiny//EN" "http://www.w3.org/Graphics/SVG/1.1/DTD/svg11-tiny.dtd">
<svg version="1.1" baseProfile="tiny" id="Layer_1" xmlns="http://www.w3.org/2000/svg" xmlns:xlink="http://www.w3.org/1999/xlink"
	 x="0px" y="0px" viewBox="0 0 283.1 512" xml:space="preserve">
<g>
	<path d="M18.9,213.5h36.4V50.1H149c17.4,0,33.3,2,47.6,5.9c14.3,3.9,26.6,9.9,36.9,17.9c10.2,8,18.3,18.2,24.1,30.5
		c5.8,12.3,8.7,27,8.7,44c0,17.1-3.1,31.9-9.2,44.5c-6.1,12.6-14.5,23.1-25.1,31.5c-10.6,8.4-23,14.6-37.4,18.7
		c-14.3,4.1-29.9,6.1-46.6,6.1H96.3V301h82.4v33.8H96.3V407h-41v-72.2H18.9V301h36.4v-51.7H18.9V213.5z M149,213.5
		c23.6,0,42.1-5.4,55.6-16.1c13.5-10.8,20.2-27,20.2-48.9c0-21.8-6.7-37.7-20.2-47.6C191.1,90.9,172.5,86,149,86H96.3v127.5H149z"/>
</g>
</svg>
