<?xml version="1.0" encoding="utf-8"?>
<!-- Generator: Adobe Illustrator 18.0.0, SVG Export Plug-In . SVG Version: 6.00 Build 0)  -->
<!DOCTYPE svg PUBLIC "-//W3C//DTD SVG 1.1 Tiny//EN" "http://www.w3.org/Graphics/SVG/1.1/DTD/svg11-tiny.dtd">
<svg version="1.1" baseProfile="tiny" id="Layer_1" xmlns="http://www.w3.org/2000/svg" xmlns:xlink="http://www.w3.org/1999/xlink"
	 x="0px" y="0px" viewBox="0 0 284.7 513.1" xml:space="preserve">
<g>
	<path d="M77.6,350.7C91,364,108,372.4,128.5,375.8V240.1c-18.1-4.4-33.7-9.3-46.8-14.6c-13.1-5.3-24.1-11.6-32.8-18.9
		c-8.7-7.3-15.1-16.3-19.2-26.9c-4.1-10.6-6.1-23.4-6.1-38.4c0-15.4,2.7-29.4,8.2-42.2C37.2,86.3,44.6,75.2,54,65.8
		c9.4-9.4,20.5-16.8,33.3-22.3c12.8-5.5,26.5-8.7,41.2-9.7V0h28.2v34.3c27.6,3.4,49.7,13.7,66,30.7c16.4,17.1,28,40.6,34.8,70.7H214
		c-6.8-33.8-25.9-53.6-57.3-59.4v126l30.7,8.2c6.8,1.7,14.8,4.7,24.1,9c9.2,4.3,18.1,10.2,26.6,17.7c8.5,7.5,15.8,16.9,21.8,28.2
		c6,11.3,9,24.8,9,40.4c0,16.7-2.8,31.6-8.4,44.5c-5.6,13-13.4,24.2-23.3,33.5c-9.9,9.4-21.7,16.8-35.3,22.3
		c-13.7,5.5-28.7,8.9-45.1,10.2v42h-28.2v-42c-34.1-3.4-61.3-15.3-81.4-35.6c-20.1-20.3-31.6-48.4-34.3-84.2h43.5
		C57,319.3,64.1,337.4,77.6,350.7z M86.8,92.4c-11.4,10.1-17.2,24.8-17.2,44.3c0,8.9,1.4,16.5,4.4,22.8c2.9,6.3,7,11.6,12.3,15.9
		c5.3,4.3,11.5,7.9,18.7,11c7.2,3.1,15,5.8,23.6,8.2V74.8C112.1,76.5,98.2,82.4,86.8,92.4z M183,370.7c8-2.7,15-6.7,21-12
		c6-5.3,10.6-11.9,13.8-20c3.2-8,4.9-17.5,4.9-28.4c0-9.9-1.7-18.2-5.1-24.8c-3.4-6.7-8-12.4-13.8-17.2c-5.8-4.8-12.8-8.8-21-12
		c-8.2-3.2-16.9-6.2-26.1-9v128.5C166.2,375.1,175,373.4,183,370.7z"/>
</g>
</svg>
