<?xml version="1.0" encoding="utf-8"?>
<!-- Generator: Adobe Illustrator 18.0.0, SVG Export Plug-In . SVG Version: 6.00 Build 0)  -->
<!DOCTYPE svg PUBLIC "-//W3C//DTD SVG 1.1 Tiny//EN" "http://www.w3.org/Graphics/SVG/1.1/DTD/svg11-tiny.dtd">
<svg version="1.1" baseProfile="tiny" id="Layer_1" xmlns="http://www.w3.org/2000/svg" xmlns:xlink="http://www.w3.org/1999/xlink"
	 x="0px" y="0px" viewBox="0 0 610.3 512" xml:space="preserve">
<g>
	<path d="M185.8,41.4L329.2,407h-37.4l-44.5-113.7H80.9L36.8,407H0L146.9,41.4H185.8z M235.5,263.6L164.8,76.2L91.6,263.6H235.5z"/>
	<path d="M395,359.1c14.5,15.9,35.2,25.3,62.2,28.4V236c-14.3-3.1-28.1-6.7-41.2-11c-13.1-4.3-24.6-10.2-34.3-17.9
		c-9.7-7.7-17.5-17.4-23.3-29.2c-5.8-11.8-8.7-26.5-8.7-44.3c0-15.4,2.8-29.2,8.4-41.5s13.3-22.8,23-31.5c9.7-8.7,21.2-15.4,34.3-20
		c13.1-4.6,27-6.9,41.7-6.9V-6.2h20v39.9c15,0,29.1,2.6,42.2,7.9c13.1,5.3,24.7,12.8,34.8,22.5c10.1,9.7,17.9,21.4,23.6,35.1
		c5.6,13.7,8.3,28.8,7.9,45.6h-32.3c-0.3-25.6-7.5-46-21.5-61.2c-14-15.2-32.3-22.8-54.8-22.8v147.5c14.7,3.1,29.1,6.8,43.3,11.3
		c14.2,4.4,26.8,10.6,37.9,18.4c11.1,7.9,20,17.7,26.9,29.4c6.8,11.8,10.2,26.7,10.2,44.8c0,16.7-3.3,31.5-10,44.3
		c-6.7,12.8-15.5,23.5-26.6,32c-11.1,8.5-23.7,14.9-37.9,19.2c-14.2,4.3-28.8,6.4-43.8,6.4v43.5h-20v-44
		c-39.9-3.8-69-15.5-87.3-35.3c-18.3-19.8-28.1-49.2-29.4-88.1h32.3C373,320.3,380.5,343.3,395,359.1z M428.3,65.2
		c-9,2.9-17.1,7.4-24.1,13.6c-7,6.1-12.5,14.1-16.4,23.8c-3.9,9.7-5.9,21.2-5.9,34.6c0,12,2.1,21.7,6.4,29.2
		c4.3,7.5,9.9,13.7,16.9,18.4c7,4.8,15,8.5,24.1,11.3c9,2.7,18.3,5.3,27.9,7.7V60.9C447,60.9,437.3,62.3,428.3,65.2z M508.9,383.4
		c10.2-2.7,19.4-7.2,27.4-13.3c8-6.1,14.5-13.9,19.5-23.3c4.9-9.4,7.4-20.7,7.4-34c0-12.3-2.6-22.5-7.9-30.7
		c-5.3-8.2-12-14.9-20.2-20.2c-8.2-5.3-17.4-9.6-27.6-13.1c-10.2-3.4-20.3-6.3-30.2-8.7v147.5C488.1,387.5,498.7,386.2,508.9,383.4z
		"/>
</g>
</svg>
