<?xml version="1.0" encoding="utf-8"?>
<!-- Generator: Adobe Illustrator 18.0.0, SVG Export Plug-In . SVG Version: 6.00 Build 0)  -->
<!DOCTYPE svg PUBLIC "-//W3C//DTD SVG 1.1 Tiny//EN" "http://www.w3.org/Graphics/SVG/1.1/DTD/svg11-tiny.dtd">
<svg version="1.1" baseProfile="tiny" id="Layer_1" xmlns="http://www.w3.org/2000/svg" xmlns:xlink="http://www.w3.org/1999/xlink"
	 x="0px" y="0px" viewBox="0 0 341.5 512" xml:space="preserve">
<path d="M301.6,242.9c-14-16.2-32.8-25.9-56.3-28.9v-1c9.6-2,18.2-5.6,25.9-10.8c7.7-5.1,14.3-11.3,20-18.7
	c5.6-7.3,10-15.5,13.1-24.6c3.1-9,4.6-18.3,4.6-27.9c0-17.1-3.2-31.3-9.7-42.8c-6.5-11.4-15.1-20.6-25.9-27.6
	c-10.8-7-23.2-11.9-37.4-14.8c-14.2-2.9-28.9-4.4-44.3-4.4H36.9v248.1H0v29.6h36.9V407h154.6c19.8,0,36.8-1.8,50.9-5.4
	c14.2-3.6,26.1-8.2,35.8-13.8c9.7-5.6,17.5-12.2,23.3-19.7c5.8-7.5,10.2-15.1,13.3-22.8c3.1-7.7,5.1-15.2,6.1-22.5
	c1-7.3,1.5-13.9,1.5-19.7C322.6,279.2,315.6,259.1,301.6,242.9z M71.7,71.1h119.8c55,0,82.4,22.9,82.4,68.6c0,8.5-1.7,16.6-5.1,24.1
	c-3.4,7.5-8.5,14.1-15.4,19.7c-6.8,5.6-15.4,10.1-25.6,13.3c-10.2,3.2-22.4,4.9-36.4,4.9H71.7V71.1z M280.1,338.6
	c-5.1,9.7-12.1,17.5-21,23.3c-8.9,5.8-19.1,9.8-30.7,12c-11.6,2.2-23.9,3.3-36.9,3.3H71.7v-58.1h98.6v-29.6H71.7v-58.2h119.8
	c31.1,0,54.9,5.9,71.4,17.7c16.6,11.8,24.8,29.4,24.8,53C287.7,316.7,285.2,328.9,280.1,338.6z"/>
</svg>
