<?xml version="1.0" encoding="utf-8"?>
<!-- Generator: Adobe Illustrator 18.0.0, SVG Export Plug-In . SVG Version: 6.00 Build 0)  -->
<!DOCTYPE svg PUBLIC "-//W3C//DTD SVG 1.1 Tiny//EN" "http://www.w3.org/Graphics/SVG/1.1/DTD/svg11-tiny.dtd">
<svg version="1.1" baseProfile="tiny" id="Layer_1" xmlns="http://www.w3.org/2000/svg" xmlns:xlink="http://www.w3.org/1999/xlink"
	 x="0px" y="0px" viewBox="0 0 645.1 512" xml:space="preserve">
<g>
	<path d="M289,114.4c-7-11.1-15.5-20.4-25.6-27.9c-10.1-7.5-21.2-13.2-33.3-17.2c-12.1-3.9-24.8-5.9-38.1-5.9
		c-24.2,0-45.1,4.6-62.5,13.8c-17.4,9.2-31.7,21.4-42.8,36.6c-11.1,15.2-19.3,32.3-24.6,51.5c-5.3,19.1-7.9,38.7-7.9,58.9
		c0,19.8,2.6,39.3,7.9,58.6c5.3,19.3,13.5,36.5,24.6,51.7c11.1,15.2,25.3,27.4,42.8,36.6c17.4,9.2,38.2,13.8,62.5,13.8
		c17.1,0,32.4-3.1,46.1-9.2c13.6-6.1,25.4-14.5,35.3-25.1c9.9-10.6,17.9-23,24.1-37.1c6.1-14.2,10.1-29.4,11.8-45.8h34.8
		c-2.4,22.5-7.7,42.8-15.9,60.9c-8.2,18.1-18.8,33.5-31.7,46.1c-13,12.6-28.2,22.4-45.8,29.2c-17.6,6.8-37.1,10.2-58.6,10.2
		c-28.7,0-53.8-5.2-75.5-15.6c-21.7-10.4-39.7-24.3-54-41.7s-25.1-37.5-32.3-60.4c-7.2-22.9-10.8-46.9-10.8-72.2
		c0-25.3,3.6-49.3,10.8-72.2c7.2-22.9,17.9-43.1,32.3-60.7c14.3-17.6,32.3-31.6,54-42C138.2,39,163.3,33.8,192,33.8
		c17.4,0,34.4,2.6,50.9,7.7c16.6,5.1,31.6,12.7,45.1,22.8c13.5,10.1,24.7,22.4,33.8,37.1c9,14.7,14.8,31.6,17.2,50.7h-34.8
		C301.1,138,296,125.5,289,114.4z"/>
	<path d="M429.8,359.1c14.5,15.9,35.2,25.3,62.2,28.4V236c-14.3-3.1-28.1-6.7-41.2-11c-13.1-4.3-24.6-10.2-34.3-17.9
		c-9.7-7.7-17.5-17.4-23.3-29.2c-5.8-11.8-8.7-26.5-8.7-44.3c0-15.4,2.8-29.2,8.4-41.5s13.3-22.8,23-31.5c9.7-8.7,21.2-15.4,34.3-20
		c13.1-4.6,27-6.9,41.7-6.9V-6.2h20v39.9c15,0,29.1,2.6,42.2,7.9c13.1,5.3,24.7,12.8,34.8,22.5c10.1,9.7,17.9,21.4,23.6,35.1
		c5.6,13.7,8.3,28.8,7.9,45.6h-32.3c-0.3-25.6-7.5-46-21.5-61.2c-14-15.2-32.3-22.8-54.8-22.8v147.5c14.7,3.1,29.1,6.8,43.3,11.3
		c14.2,4.4,26.8,10.6,37.9,18.4c11.1,7.9,20,17.7,26.9,29.4c6.8,11.8,10.2,26.7,10.2,44.8c0,16.7-3.3,31.5-10,44.3
		c-6.7,12.8-15.5,23.5-26.6,32c-11.1,8.5-23.7,14.9-37.9,19.2c-14.2,4.3-28.8,6.4-43.8,6.4v43.5h-20v-44
		c-39.9-3.8-69-15.5-87.3-35.3c-18.3-19.8-28.1-49.2-29.4-88.1h32.3C407.9,320.3,415.3,343.3,429.8,359.1z M463.1,65.2
		c-9,2.9-17.1,7.4-24.1,13.6c-7,6.1-12.5,14.1-16.4,23.8c-3.9,9.7-5.9,21.2-5.9,34.6c0,12,2.1,21.7,6.4,29.2
		c4.3,7.5,9.9,13.7,16.9,18.4c7,4.8,15,8.5,24.1,11.3c9,2.7,18.3,5.3,27.9,7.7V60.9C481.8,60.9,472.1,62.3,463.1,65.2z M543.7,383.4
		c10.2-2.7,19.4-7.2,27.4-13.3c8-6.1,14.5-13.9,19.5-23.3c4.9-9.4,7.4-20.7,7.4-34c0-12.3-2.6-22.5-7.9-30.7
		c-5.3-8.2-12-14.9-20.2-20.2c-8.2-5.3-17.4-9.6-27.6-13.1c-10.2-3.4-20.3-6.3-30.2-8.7v147.5C522.9,387.5,533.5,386.2,543.7,383.4z
		"/>
</g>
</svg>
