<?xml version="1.0" encoding="utf-8"?>
<!-- Generator: Adobe Illustrator 18.0.0, SVG Export Plug-In . SVG Version: 6.00 Build 0)  -->
<!DOCTYPE svg PUBLIC "-//W3C//DTD SVG 1.1 Tiny//EN" "http://www.w3.org/Graphics/SVG/1.1/DTD/svg11-tiny.dtd">
<svg version="1.1" baseProfile="tiny" id="Layer_1" xmlns="http://www.w3.org/2000/svg" xmlns:xlink="http://www.w3.org/1999/xlink"
	 x="0px" y="0px" viewBox="0 0 285.7 512" xml:space="preserve">
<g>
	<path d="M186.9,414.2c-43,0-77.5-15-103.4-45.1c-22.9-27-36.9-63-42-108H7.7l9.7-23h22.5c-0.3-1-0.5-2.6-0.5-4.6v-5.6
		c0-2.7,0.1-5.7,0.3-9c0.2-3.2,0.4-6.9,0.8-11H7.7l9.2-23H43c7.5-42,23.2-75.4,47.1-100.4c25.9-28,59.2-42,99.8-42
		c42.3,0,74.1,13.1,95.2,39.4l-13.8,30.2c-22.5-26.6-49.8-39.9-81.9-39.9c-31.4,0-57,11.4-76.8,34.2c-17.4,19.7-29.2,45.9-35.3,78.5
		h170.5l-9.2,23H74.2c-1,8.5-1.5,15.9-1.5,22v4.1c0,1.7,0.2,3.1,0.5,4.1h155.6l-9.7,23H74.8c4.4,35.5,15.2,64.3,32.3,86.5
		c20.5,25.6,47.4,38.4,80.9,38.4c17.7,0,34.1-3.9,49.2-11.8c11.9-6.8,25.3-17.6,39.9-32.3v39.4C251,403.2,221,414.2,186.9,414.2z"/>
</g>
</svg>
