<?xml version="1.0" encoding="utf-8"?>
<!-- Generator: Adobe Illustrator 18.0.0, SVG Export Plug-In . SVG Version: 6.00 Build 0)  -->
<!DOCTYPE svg PUBLIC "-//W3C//DTD SVG 1.1 Tiny//EN" "http://www.w3.org/Graphics/SVG/1.1/DTD/svg11-tiny.dtd">
<svg version="1.1" baseProfile="tiny" id="Layer_1" xmlns="http://www.w3.org/2000/svg" xmlns:xlink="http://www.w3.org/1999/xlink"
	 x="0px" y="0px" viewBox="0 0 284.7 512" xml:space="preserve">
<g>
	<path d="M55.8,221.7C48,209,41.3,196,35.8,182.5c-5.5-13.5-8.2-27.9-8.2-43.3c0-18.4,3.3-34.2,10-47.4C44.3,78.7,53.1,67.8,64,59.1
		c10.9-8.7,23.4-15.1,37.4-19.2c14-4.1,28.3-6.1,43-6.1c38.2,0,67.8,10.7,88.6,32c20.8,21.3,30.9,51.1,30.2,89.3h-32.3
		c0-27.6-7.3-50.3-21.8-67.8c-14.5-17.6-36.1-26.4-64.8-26.4c-10.6,0-21,1.6-31.2,4.9C102.9,69,93.9,73.9,86,80.6
		c-7.9,6.7-14.2,15-18.9,25.1c-4.8,10.1-7.2,21.9-7.2,35.6c0,8.9,1,16.6,3.1,23.3c2,6.7,4.5,13,7.4,18.9c2.9,6,6.1,12,9.7,17.9
		c3.6,6,6.9,12.7,10,20.2H172V238H99.3c3.8,6.1,6.7,14.2,9,24.1c2.2,9.9,3.3,18.4,3.3,25.6c0,9.6-1.6,18.8-4.9,27.6
		c-3.2,8.9-7.5,17.2-12.8,25.1c-5.3,7.9-11.3,15.2-17.9,22c-6.7,6.8-13.6,13-20.7,18.4l1,1c7.5-3.8,15.4-7.2,23.8-10.5
		c8.4-3.2,17-4.9,25.9-4.9c11.3,0,21.1,1,29.4,3.1c8.4,2,16,4.4,22.8,7.2c7.2,2.7,14.2,5.2,21,7.4c6.8,2.2,14.5,3.3,23,3.3
		c10.9,0,21.7-2.8,32.3-8.4c10.6-5.6,19.5-12.4,26.6-20.2l16.4,24.6c-11.3,9.9-22.7,17.5-34.3,22.8c-11.6,5.3-25.1,7.9-40.4,7.9
		c-11.3,0-21.2-1-29.7-3.1c-8.5-2-16.7-4.4-24.6-7.2c-7.9-2.7-15.9-5.1-24.1-7.2c-8.2-2-17.4-3.1-27.6-3.1c-6.5,0-12.1,0.5-16.9,1.5
		c-4.8,1-9.2,2.4-13.3,4.1c-4.1,1.7-8.2,3.8-12.3,6.4c-4.1,2.6-8.7,5.4-13.8,8.4L22,387c7.5-6.1,14.8-12.7,21.8-19.7
		c7-7,13.1-14.3,18.4-22c5.3-7.7,9.5-16,12.5-24.8c3.1-8.9,4.6-18.4,4.6-28.7c0-7.8-1.4-17.1-4.1-27.6c-2.7-10.6-6.1-19.3-10.2-26.1
		H23.6v-16.4H55.8z"/>
</g>
</svg>
