<?xml version="1.0" encoding="utf-8"?>
<!-- Generator: Adobe Illustrator 18.0.0, SVG Export Plug-In . SVG Version: 6.00 Build 0)  -->
<!DOCTYPE svg PUBLIC "-//W3C//DTD SVG 1.1 Tiny//EN" "http://www.w3.org/Graphics/SVG/1.1/DTD/svg11-tiny.dtd">
<svg version="1.1" baseProfile="tiny" id="Layer_1" xmlns="http://www.w3.org/2000/svg" xmlns:xlink="http://www.w3.org/1999/xlink"
	 x="0px" y="0px" viewBox="0 0 277 512" xml:space="preserve">
<g>
	<path d="M191,149c-0.7,15-4.4,28.1-11,39.2c-6.7,11.1-14.7,20.4-24.1,27.9c-9.4,7.5-19.1,13.2-29.2,17.2
		c-10.1,3.9-18.7,6.4-25.9,7.4L223.7,407h-38.9L94.2,286.7c-6.5-8.5-12.2-15.8-17.2-21.8c-5-6-9.8-10.8-14.6-14.6
		c-4.8-3.8-9.9-6.5-15.4-8.2c-5.5-1.7-12-2.6-19.5-2.6v-23h30.2c13.6,0,26.4-1.3,38.4-3.8c11.9-2.6,22.4-6.5,31.2-11.8
		c8.9-5.3,16-12.2,21.2-20.7c5.3-8.5,8.3-18.9,9-31.2H18.4l15.4-21h122.9c-1.4-8.2-3.8-15.7-7.2-22.5c-3.4-6.8-8.3-12.8-14.6-17.9
		c-6.3-5.1-14.2-9.1-23.6-12c-9.4-2.9-20.7-4.4-34-4.4H18.4l15.4-21h224.8l-15.4,21h-82.4c8.5,6.8,15.1,15.1,19.7,24.8
		c4.6,9.7,7.8,20.4,9.5,32h68.6l-15.4,21H191z"/>
</g>
</svg>
