<?xml version="1.0" encoding="utf-8"?>
<!-- Generator: Adobe Illustrator 18.0.0, SVG Export Plug-In . SVG Version: 6.00 Build 0)  -->
<!DOCTYPE svg PUBLIC "-//W3C//DTD SVG 1.1 Tiny//EN" "http://www.w3.org/Graphics/SVG/1.1/DTD/svg11-tiny.dtd">
<svg version="1.1" baseProfile="tiny" id="Layer_1" xmlns="http://www.w3.org/2000/svg" xmlns:xlink="http://www.w3.org/1999/xlink"
	 x="0px" y="0px" viewBox="0 0 283.1 512" xml:space="preserve">
<g>
	<path d="M79.9,250.3v58.9h80.4v26.1H79.9V407H47.6v-71.7H15.9v-26.1h31.7v-58.9H15.9v-28.2h31.7v-169h97.3c16.4,0,31.5,2,45.3,5.9
		c13.8,3.9,25.7,10,35.6,18.2c9.9,8.2,17.7,18.4,23.3,30.7c5.6,12.3,8.4,26.6,8.4,43s-2.7,30.8-8.2,43.3
		c-5.5,12.5-13.1,22.9-22.8,31.2c-9.7,8.4-21.3,14.6-34.8,18.7c-13.5,4.1-28.4,6.1-44.8,6.1H79.9z M143.9,222.2
		c11.6,0,22.4-1.4,32.3-4.1c9.9-2.7,18.5-6.9,25.9-12.5c7.3-5.6,13.1-13,17.2-22c4.1-9,6.1-19.9,6.1-32.5c0-12.6-2.1-23.4-6.4-32.3
		c-4.3-8.9-10.1-16-17.4-21.5c-7.3-5.5-16-9.5-25.9-12c-9.9-2.6-20.5-3.8-31.7-3.8h-64v140.8H143.9z"/>
</g>
</svg>
