<?xml version="1.0" encoding="utf-8"?>
<!-- Generator: Adobe Illustrator 18.0.0, SVG Export Plug-In . SVG Version: 6.00 Build 0)  -->
<!DOCTYPE svg PUBLIC "-//W3C//DTD SVG 1.1 Tiny//EN" "http://www.w3.org/Graphics/SVG/1.1/DTD/svg11-tiny.dtd">
<svg version="1.1" baseProfile="tiny" id="Layer_1" xmlns="http://www.w3.org/2000/svg" xmlns:xlink="http://www.w3.org/1999/xlink"
	 x="0px" y="0px" viewBox="0 0 360.5 512" xml:space="preserve">
<path d="M324.1,242.9c-11.6-16.6-28.7-27.2-51.2-32v-1c16.7-7.2,29.6-17.3,38.7-30.5c9-13.1,13.6-28.9,13.6-47.4
	c0-30.4-9.9-53.1-29.7-68.1c-19.8-15-46.1-22.5-78.8-22.5h-12.8V-7.2h-22v48.6h-58.4V-7.2h-22v48.6H38.9V407h62.5v48.6h22V407h58.4
	v48.6h22V407h3.1c23.6,0,43.9-2.6,60.9-7.9c17.1-5.3,31.1-12.5,42-21.5c10.9-9,18.9-19.8,24.1-32.3c5.1-12.5,7.7-25.9,7.7-40.2
	C341.5,280.2,335.7,259.5,324.1,242.9z M247.3,104.9c9.2,7.5,13.8,20.5,13.8,38.9c0,16.4-5.1,28.9-15.4,37.6s-23,13.1-38.4,13.1
	H102.9V93.7h104.4C224.8,93.7,238.1,97.4,247.3,104.9z M261.4,339.7c-10.8,10.1-25.9,15.1-45.3,15.1H102.9V240.6h113.2
	c19.5,0,34.6,4.9,45.3,14.6s16.1,23.6,16.1,41.7C277.5,315.4,272.1,329.6,261.4,339.7z"/>
</svg>
