<?xml version="1.0" encoding="utf-8"?>
<!-- Generator: Adobe Illustrator 18.0.0, SVG Export Plug-In . SVG Version: 6.00 Build 0)  -->
<!DOCTYPE svg PUBLIC "-//W3C//DTD SVG 1.1 Tiny//EN" "http://www.w3.org/Graphics/SVG/1.1/DTD/svg11-tiny.dtd">
<svg version="1.1" baseProfile="tiny" id="Layer_1" xmlns="http://www.w3.org/2000/svg" xmlns:xlink="http://www.w3.org/1999/xlink"
	 x="0px" y="0px" viewBox="0 0 654.3 512" xml:space="preserve">
<g>
	<path d="M285.7,157.7c-2.7-10.6-6.5-20.3-11.3-29.2c-4.8-8.9-10.9-16.6-18.4-23c-7.5-6.5-16.3-11.5-26.4-15.1
		c-10.1-3.6-21.8-5.4-35.1-5.4c-19.5,0-36.3,3.9-50.4,11.8c-14.2,7.9-25.7,18.4-34.6,31.5c-8.9,13.1-15.4,28.1-19.7,44.8
		c-4.3,16.7-6.4,33.8-6.4,51.2c0,17.4,2.1,34.5,6.4,51.2c4.3,16.7,10.8,31.7,19.7,44.8c8.9,13.1,20.4,23.6,34.6,31.5
		c14.2,7.9,31,11.8,50.4,11.8c14.3,0,27-2.5,37.9-7.4c10.9-4.9,20.3-11.8,28.2-20.5c7.8-8.7,14-18.9,18.4-30.5
		c4.4-11.6,7.3-24.1,8.7-37.4h62.5c-1.4,21.8-6.1,41.8-14.1,59.9c-8,18.1-18.9,33.7-32.5,46.8c-13.7,13.1-29.7,23.3-48.1,30.5
		c-18.4,7.2-38.7,10.8-60.9,10.8c-27.3,0-51.8-5-73.5-15.1c-21.7-10.1-40-23.8-55-41.2c-15-17.4-26.5-37.7-34.6-60.9
		c-8-23.2-12-48-12-74.2c0-25.9,4-50.5,12-73.7C39.5,127.3,51,107,66,89.6c15-17.4,33.4-31.2,55-41.5c21.7-10.2,46.2-15.4,73.5-15.4
		c20.5,0,39.8,2.8,57.9,8.4c18.1,5.6,34,13.8,47.9,24.6s25,23.8,33.5,39.2c8.5,15.4,13.8,32.9,15.9,52.7H285.7z"/>
	<path d="M436.7,295.9c-0.3,22.5,4.6,40.3,14.8,53.2c10.2,13,27.1,19.8,50.7,20.5V245.7c-14-3.8-27.9-8.3-41.7-13.6
		c-13.8-5.3-26.3-12.1-37.4-20.5c-11.1-8.4-20.1-18.9-26.9-31.5c-6.8-12.6-10.2-28.3-10.2-47.1c0-16.4,3.2-30.8,9.5-43.3
		c6.3-12.5,14.8-22.9,25.6-31.2c10.8-8.4,23.1-14.8,37.1-19.2c14-4.4,28.7-6.7,44-6.7V-7.2h22v39.9c15.4,0,29.9,2,43.5,6.1
		c13.6,4.1,25.5,10.2,35.6,18.4c10.1,8.2,18.1,18.6,24.1,31.2c6,12.6,9,27.3,9,44H578c-0.7-17.4-5.2-30.7-13.6-39.9
		c-8.4-9.2-21.8-13.8-40.2-13.8v108c15.4,4.1,30.4,8.9,45.1,14.3c14.7,5.5,27.6,12.5,38.9,21c11.3,8.5,20.3,19.1,27.1,31.7
		c6.8,12.6,10.2,28.2,10.2,46.6c0,19.1-3.2,35.8-9.5,49.9c-6.3,14.2-14.9,25.9-25.9,35.3c-10.9,9.4-23.7,16.6-38.4,21.5
		c-14.7,4.9-30.6,7.8-47.6,8.4v39.9h-22v-39.9c-18.4-0.3-35.3-3.2-50.7-8.7s-28.5-13.2-39.4-23.3c-10.9-10.1-19.4-22.4-25.3-37.1
		c-6-14.7-8.8-31.6-8.4-50.7H436.7z M502.3,78.8c-18.4,0-32.7,3.8-42.8,11.5c-10.1,7.7-15.1,20.6-15.1,38.7c0,8.2,1.7,15.2,5.1,21
		c3.4,5.8,7.8,10.8,13.1,14.8c5.3,4.1,11.4,7.4,18.4,10c7,2.6,14.1,4.7,21.2,6.4V78.8z M524.3,369.6c18.4-1.4,33.5-6.7,45.3-16.1
		c11.8-9.4,17.7-24.3,17.7-44.8c0-9.6-1.8-17.6-5.4-24.1c-3.6-6.5-8.4-11.9-14.3-16.4c-6-4.4-12.7-8-20.2-10.8
		c-7.5-2.7-15.2-5.1-23-7.2V369.6z"/>
</g>
</svg>
