<?xml version="1.0" encoding="utf-8"?>
<!-- Generator: Adobe Illustrator 18.0.0, SVG Export Plug-In . SVG Version: 6.00 Build 0)  -->
<!DOCTYPE svg PUBLIC "-//W3C//DTD SVG 1.1 Tiny//EN" "http://www.w3.org/Graphics/SVG/1.1/DTD/svg11-tiny.dtd">
<svg version="1.1" baseProfile="tiny" id="Layer_1" xmlns="http://www.w3.org/2000/svg" xmlns:xlink="http://www.w3.org/1999/xlink"
	 x="0px" y="0px" viewBox="0 0 290.3 512" xml:space="preserve">
<g>
	<path d="M290.3,73.2l-23.6,46.6C244.9,97.9,221,87,195.1,87c-22.9,0-42,9-57.3,27.1c-13,16-21.7,36-26.1,59.9h135.2l-13.3,32.8H108
		c-0.3,1.7-0.5,4.1-0.5,7.2c0,3.1,0,7,0,11.8c0,8.9,0.2,14.2,0.5,15.9h118.3l-12.8,32.3H110.6c4.1,27.6,12.8,49.3,26.1,65
		c15.4,19.5,36.2,29.2,62.5,29.2c17.1,0,31.2-2.7,42.5-8.2c10.2-5.1,21.8-13.6,34.8-25.6v56.8c-23.2,15-49,22.5-77.3,22.5
		c-45.7,0-81.4-14-107-42c-22.2-24.2-36-56.8-41.5-97.8H11.3l13.8-32.3h23c-0.3-2.4-0.6-4.9-0.8-7.7c-0.2-2.7-0.3-5.6-0.3-8.7
		c0-2.4,0.1-5.1,0.3-8.2c0.2-3.1,0.4-6.5,0.8-10.2H11.3L24.6,174h27.1c8.5-39.2,24.1-70.3,46.6-93.2c26.3-26.3,59.9-39.4,100.9-39.4
		C228.9,41.4,259.2,52,290.3,73.2z"/>
</g>
</svg>
