<?xml version="1.0" encoding="utf-8"?>
<!-- Generator: Adobe Illustrator 18.0.0, SVG Export Plug-In . SVG Version: 6.00 Build 0)  -->
<!DOCTYPE svg PUBLIC "-//W3C//DTD SVG 1.1 Tiny//EN" "http://www.w3.org/Graphics/SVG/1.1/DTD/svg11-tiny.dtd">
<svg version="1.1" baseProfile="tiny" id="Layer_1" xmlns="http://www.w3.org/2000/svg" xmlns:xlink="http://www.w3.org/1999/xlink"
	 x="0px" y="0px" viewBox="0 0 284.7 512" xml:space="preserve">
<g>
	<path d="M15.9,210.4h32.3c-7.9-9.6-13.8-20.9-17.9-34c-4.1-13.1-6.1-25.9-6.1-38.1c0-16,3.4-30.5,10.2-43.5
		c6.8-13,15.9-24.1,27.1-33.3c11.3-9.2,24.1-16.3,38.4-21.2c14.3-4.9,29-7.4,44-7.4c39.2,0,70.4,10.5,93.4,31.5
		c23,21,34.7,52.7,35.1,95H214c-0.7-10.9-2.3-21.2-4.9-30.7c-2.6-9.6-6.5-17.8-11.8-24.8c-5.3-7-12.3-12.5-21-16.4
		c-8.7-3.9-19.2-5.9-31.5-5.9c-15.7,0-29.1,5.1-40.2,15.4c-11.1,10.2-16.6,25.1-16.6,44.5c0,12,2.6,24,7.7,36.1
		c5.1,12.1,10.4,23.1,15.9,33h75.3v33.3h-63c5.5,10.2,8.2,21.7,8.2,34.3c0,9.2-1.4,17.8-4.1,25.9c-2.7,8-6.5,15.5-11.3,22.5
		c-4.8,7-10.3,13.4-16.6,19.2c-6.3,5.8-12.9,11.3-19.7,16.4l1,1c7.8-3.1,15.5-6.1,23-9.2c7.5-3.1,15.5-4.6,24.1-4.6
		c8.9,0,16.6,0.9,23,2.8c6.5,1.9,12.6,3.8,18.4,5.9c5.8,2.4,11.6,4.5,17.4,6.4c5.8,1.9,12.6,2.8,20.5,2.8c9.6,0,18.4-1.7,26.6-5.1
		c8.2-3.4,15.9-8.2,23-14.3l26.1,39.4c-13,10.9-25.7,18.4-38.1,22.5c-12.5,4.1-27.1,6.1-43.8,6.1c-8.2,0-16.5-0.9-24.8-2.8
		c-8.4-1.9-17-3.5-25.9-4.9c-8.5-2.7-17.2-5.1-26.1-7.2c-8.9-2-18.1-3.1-27.6-3.1c-8.9,0-18.1,1.5-27.6,4.6
		c-9.6,3.1-17.6,7.3-24.1,12.8l-27.1-41.5c6.1-4.1,12.5-9.3,19.2-15.6c6.7-6.3,12.6-13.1,17.9-20.5c5.3-7.3,9.6-15,13.1-23
		c3.4-8,5.1-16,5.1-23.8c0-8.9-0.9-17.2-2.8-25.1c-1.9-7.8-4.5-15.2-7.9-22H15.9V210.4z"/>
</g>
</svg>
