<?xml version="1.0" encoding="utf-8"?>
<!-- Generator: Adobe Illustrator 18.0.0, SVG Export Plug-In . SVG Version: 6.00 Build 0)  -->
<!DOCTYPE svg PUBLIC "-//W3C//DTD SVG 1.1 Tiny//EN" "http://www.w3.org/Graphics/SVG/1.1/DTD/svg11-tiny.dtd">
<svg version="1.1" baseProfile="tiny" id="Layer_1" xmlns="http://www.w3.org/2000/svg" xmlns:xlink="http://www.w3.org/1999/xlink"
	 x="0px" y="0px" viewBox="0 0 280.1 512" xml:space="preserve">
<g>
	<path d="M187.9,171.5c-5.1,20.1-15.4,36.3-30.7,48.4c-15.4,12.1-32.3,20.7-50.7,25.9L228.9,407h-64.5L73.7,286.7
		c-9.9-13.3-17.8-23-23.8-28.9c-6-6-13.4-9-22.3-9v-37.4h30.2c18.1,0,33.4-3.2,45.8-9.5c12.5-6.3,21.1-16.5,25.9-30.5H18.4L33.8,128
		h96.8c-2.7-10.9-8.3-19.5-16.6-25.6c-8.4-6.1-19.7-9.6-34-10.2H18.4l15.4-43.5h224.8l-15.4,43.5h-65.5
		c6.5,11.3,10.4,23.2,11.8,35.8h69.1l-15.4,43.5H187.9z"/>
</g>
</svg>
