<?xml version="1.0" encoding="utf-8"?>
<!-- Generator: Adobe Illustrator 18.0.0, SVG Export Plug-In . SVG Version: 6.00 Build 0)  -->
<!DOCTYPE svg PUBLIC "-//W3C//DTD SVG 1.1 Tiny//EN" "http://www.w3.org/Graphics/SVG/1.1/DTD/svg11-tiny.dtd">
<svg version="1.1" baseProfile="tiny" id="Layer_1" xmlns="http://www.w3.org/2000/svg" xmlns:xlink="http://www.w3.org/1999/xlink"
	 x="0px" y="0px" viewBox="0 0 283.1 512" xml:space="preserve">
<g>
	<path d="M173.6,352.7h-67.1V407H48.1v-54.3H10.8v-46.1h37.4v-41H10.8v-51.2h37.4V48.1h96.5c25.9,0,47.1,3.4,63.6,10.2
		c16.5,6.8,29.5,15.6,39.1,26.4c9.5,10.8,16,22.6,19.4,35.6c3.4,13,5.1,25.8,5.1,38.4c0,12.3-2,24.8-5.9,37.6
		c-3.9,12.8-10.8,24.4-20.7,34.8c-9.9,10.4-23.1,18.9-39.7,25.6c-16.6,6.7-37.5,10-62.7,10h-36.4v39.9h67.1V352.7z M106.5,214.5H144
		c7.2,0,14.8-0.8,22.9-2.3c8.1-1.5,15.6-4.4,22.6-8.4c7-4.1,12.8-9.8,17.2-17.2c4.5-7.3,6.7-16.8,6.7-28.4c0-11.9-2-21.7-5.9-29.2
		c-3.9-7.5-9.2-13.4-15.7-17.7c-6.5-4.3-13.8-7.2-21.9-8.7c-8.1-1.5-16.4-2.3-25-2.3h-38.6V214.5z"/>
</g>
</svg>
