<?xml version="1.0" encoding="utf-8"?>
<!-- Generator: Adobe Illustrator 18.0.0, SVG Export Plug-In . SVG Version: 6.00 Build 0)  -->
<!DOCTYPE svg PUBLIC "-//W3C//DTD SVG 1.1 Tiny//EN" "http://www.w3.org/Graphics/SVG/1.1/DTD/svg11-tiny.dtd">
<svg version="1.1" baseProfile="tiny" id="Layer_1" xmlns="http://www.w3.org/2000/svg" xmlns:xlink="http://www.w3.org/1999/xlink"
	 x="0px" y="0px" viewBox="0 0 284.7 513.1" xml:space="preserve">
<g>
	<path d="M67.1,297c-0.3,22.5,4.6,40.3,14.8,53.2c10.2,13,27.1,19.8,50.7,20.5V246.8c-14-3.8-27.9-8.3-41.7-13.6
		c-13.8-5.3-26.3-12.1-37.4-20.5c-11.1-8.4-20.1-18.9-26.9-31.5c-6.8-12.6-10.2-28.3-10.2-47.1c0-16.4,3.2-30.8,9.5-43.3
		C32.2,78.4,40.7,68,51.5,59.6c10.8-8.4,23.1-14.8,37.1-19.2c14-4.4,28.7-6.7,44-6.7V-6.1h22v39.9c15.4,0,29.9,2,43.5,6.1
		c13.6,4.1,25.5,10.2,35.6,18.4c10.1,8.2,18.1,18.6,24.1,31.2c6,12.6,9,27.3,9,44h-58.4c-0.7-17.4-5.2-30.7-13.6-39.9
		c-8.4-9.2-21.8-13.8-40.2-13.8v108c15.4,4.1,30.4,8.9,45.1,14.3c14.7,5.5,27.6,12.5,38.9,21c11.3,8.5,20.3,19.1,27.1,31.7
		c6.8,12.6,10.2,28.2,10.2,46.6c0,19.1-3.2,35.8-9.5,49.9c-6.3,14.2-14.9,25.9-25.9,35.3c-10.9,9.4-23.7,16.6-38.4,21.5
		c-14.7,4.9-30.6,7.8-47.6,8.4v39.9h-22v-39.9c-18.4-0.3-35.3-3.2-50.7-8.7s-28.5-13.2-39.4-23.3c-10.9-10.1-19.4-22.4-25.3-37.1
		c-6-14.7-8.8-31.6-8.4-50.7H67.1z M132.6,79.9c-18.4,0-32.7,3.8-42.8,11.5C79.8,99.1,74.8,112,74.8,130c0,8.2,1.7,15.2,5.1,21
		c3.4,5.8,7.8,10.8,13.1,14.8c5.3,4.1,11.4,7.4,18.4,10c7,2.6,14.1,4.7,21.2,6.4V79.9z M154.6,370.7c18.4-1.4,33.5-6.7,45.3-16.1
		c11.8-9.4,17.7-24.3,17.7-44.8c0-9.6-1.8-17.6-5.4-24.1c-3.6-6.5-8.4-11.9-14.3-16.4c-6-4.4-12.7-8-20.2-10.8
		c-7.5-2.7-15.2-5.1-23-7.2V370.7z"/>
</g>
</svg>
