<?xml version="1.0" encoding="utf-8"?>
<!-- Generator: Adobe Illustrator 18.0.0, SVG Export Plug-In . SVG Version: 6.00 Build 0)  -->
<!DOCTYPE svg PUBLIC "-//W3C//DTD SVG 1.1 Tiny//EN" "http://www.w3.org/Graphics/SVG/1.1/DTD/svg11-tiny.dtd">
<svg version="1.1" baseProfile="tiny" id="Layer_1" xmlns="http://www.w3.org/2000/svg" xmlns:xlink="http://www.w3.org/1999/xlink"
	 x="0px" y="0px" viewBox="0 0 584.7 512" xml:space="preserve">
<g>
	<path d="M11.2,407H0l148-365.6h13.3L305.6,407h-11.3l-48.1-120.3H59.9L11.2,407z M155.1,51.7h-1L64,276.4h178.2L155.1,51.7z"/>
	<path d="M322.3,339.2c6,14.8,14.3,27.1,25.1,36.6c10.8,9.6,23.6,16.6,38.7,21.2c15,4.6,31.6,7.3,49.7,7.9V222.7
		c-14.7-3.4-29.3-7-43.8-10.8c-14.5-3.8-27.6-9-39.2-15.6c-11.6-6.7-21-15.4-28.2-26.4c-7.2-10.9-10.8-25.3-10.8-43
		c0-17.7,3.7-32.7,11-44.8c7.3-12.1,16.8-21.8,28.4-29.2c11.6-7.3,24.7-12.5,39.2-15.6c14.5-3.1,28.9-4.6,43.3-4.6v-22h10.2v22.5
		c17.1,0.3,32.8,2.6,47.4,6.9c14.5,4.3,27.1,10.8,37.9,19.5s19.3,20,25.6,33.8c6.3,13.8,10,30.6,11,50.4h-10.2
		c-0.7-18.1-3.9-33.4-9.7-45.8c-5.8-12.5-13.7-22.7-23.6-30.7c-9.9-8-21.5-13.9-34.8-17.7c-13.3-3.8-27.8-5.8-43.5-6.1v171l4.1,1
		c17.1,4.4,33.2,8.7,48.4,12.8c15.2,4.1,28.4,9.6,39.7,16.4c11.3,6.8,20.2,15.9,26.9,27.1s10,26.5,10,45.6
		c0,17.4-3.8,32.3-11.3,44.5c-7.5,12.3-17.4,22.4-29.7,30.5c-12.3,8-26.1,13.8-41.5,17.4c-15.4,3.6-30.9,5.4-46.6,5.4v45.1h-10.2
		v-45.6c-19.5-0.7-37.4-3.6-53.8-8.7c-16.4-5.1-30.5-13-42.2-23.6c-11.8-10.6-20.9-23.8-27.4-39.7c-6.5-15.9-9.6-34.9-9.2-57.1h10.2
		C313.3,306.5,316.3,324.3,322.3,339.2z M396.8,47.1c-13.3,2.7-25.3,7.3-36.1,13.8c-10.8,6.5-19.5,15.1-26.4,25.9
		c-6.8,10.8-10.2,24.2-10.2,40.2c0,15.4,3.1,27.8,9.2,37.4c6.1,9.6,14.4,17.3,24.8,23.3c10.4,6,22.4,10.8,35.8,14.3
		c13.5,3.6,27.4,6.9,41.7,10V43C423.1,43,410.1,44.3,396.8,47.1z M488.7,400.6c14.2-3.2,26.9-8.4,38.1-15.6
		c11.3-7.2,20.4-16.4,27.4-27.6c7-11.3,10.5-24.7,10.5-40.4c0-17.4-3.7-31.4-11-42c-7.3-10.6-16.7-19-28.2-25.3
		c-11.4-6.3-24.2-11.2-38.1-14.6c-14-3.4-27.8-6.7-41.5-9.7v180.2C460.3,405.5,474.5,403.8,488.7,400.6z"/>
</g>
</svg>
