<?xml version="1.0" encoding="utf-8"?>
<!-- Generator: Adobe Illustrator 18.0.0, SVG Export Plug-In . SVG Version: 6.00 Build 0)  -->
<!DOCTYPE svg PUBLIC "-//W3C//DTD SVG 1.1 Tiny//EN" "http://www.w3.org/Graphics/SVG/1.1/DTD/svg11-tiny.dtd">
<svg version="1.1" baseProfile="tiny" id="Layer_1" xmlns="http://www.w3.org/2000/svg" xmlns:xlink="http://www.w3.org/1999/xlink"
	 x="0px" y="0px" viewBox="0 0 312.8 512" xml:space="preserve">
<path d="M288.3,270c-4.8-11.1-11.2-20.5-19.2-28.2c-8-7.7-17.4-13.6-28.2-17.9c-10.8-4.3-22.1-6.6-34-6.9v-1
	c11.3-0.7,21.6-3.3,31-7.9c9.4-4.6,17.5-10.7,24.3-18.2c6.8-7.5,12.2-16.2,16.1-26.1c3.9-9.9,5.9-20.3,5.9-31.2
	c0-15.4-2.6-28.7-7.9-39.9c-5.3-11.3-12.6-20.7-22-28.4c-9.4-7.7-20.3-13.4-32.8-17.2c-12-3.6-24.9-5.5-38.6-5.6V10.7h-10.3v30.7
	h-69.6V10.7H92.7v30.7H24.1V407h68.6v53.3h10.3V407h69.6v53.3h10.3v-53.5c14.5-0.5,28-2.6,40.7-6.2c14.8-4.3,27.6-10.5,38.1-18.7
	c10.6-8.2,18.9-18.5,24.8-31c6-12.5,9-26.9,9-43.3C295.4,293.7,293,281.1,288.3,270z M34.3,51.7h146.9c13,0,25.1,1.6,36.4,4.9
	c11.3,3.2,21.1,8.2,29.4,14.8c8.4,6.7,14.9,15,19.7,25.1c4.8,10.1,7.2,22.1,7.2,36.1c0,13-2.6,24.4-7.7,34.3
	c-5.1,9.9-12,18.2-20.5,24.8c-8.5,6.7-18.4,11.6-29.4,14.8c-11.1,3.2-22.8,4.9-35.1,4.9H34.3V51.7z M277,347.4
	c-5.5,11.1-12.9,20.3-22.3,27.6c-9.4,7.3-20.5,12.8-33.3,16.4c-12.8,3.6-26.7,5.4-41.7,5.4H34.3V221.7h146.9c13,0,25.7,1.5,38.1,4.6
	c12.5,3.1,23.6,8,33.3,14.8c9.7,6.8,17.6,15.7,23.6,26.6c6,10.9,9,24.4,9,40.4C285.2,323.2,282.4,336.3,277,347.4z"/>
</svg>
