<?xml version="1.0" encoding="utf-8"?>
<!-- Generator: Adobe Illustrator 18.0.0, SVG Export Plug-In . SVG Version: 6.00 Build 0)  -->
<!DOCTYPE svg PUBLIC "-//W3C//DTD SVG 1.1 Tiny//EN" "http://www.w3.org/Graphics/SVG/1.1/DTD/svg11-tiny.dtd">
<svg version="1.1" baseProfile="tiny" id="Layer_1" xmlns="http://www.w3.org/2000/svg" xmlns:xlink="http://www.w3.org/1999/xlink"
	 x="0px" y="0px" viewBox="0 0 290.3 512" xml:space="preserve">
<g>
	<path d="M182.8,414.2c-21.5,0-40.9-3.8-58.1-11.3c-17.2-7.5-32.3-17.8-45.1-31c-12.8-13.1-23.3-28.5-31.5-46.1
		c-8.2-17.6-13.8-36.4-16.9-56.6H0l3.6-8.7h27.1c-0.3-1.7-0.6-3.5-0.8-5.4c-0.2-1.9-0.3-3.7-0.3-5.4v-10.8c0-4.8,0.1-9.7,0.3-14.8
		c0.2-5.1,0.4-10.1,0.8-14.8H0l3.6-8.7h28.2c2.7-21.2,8.1-40.8,16.1-58.9c8-18.1,18.6-33.9,31.7-47.4c13.1-13.5,28.7-24.1,46.6-31.7
		c17.9-7.7,38-11.5,60.2-11.5c18.4,0,35.3,2.8,50.7,8.4c15.4,5.6,30.2,14.1,44.5,25.3l-4.6,8.2c-14.3-10.9-28.5-19.1-42.5-24.6
		c-14-5.5-30.2-8.2-48.6-8.2c-20.5,0-39.1,3.7-55.8,11c-16.7,7.3-31.2,17.3-43.5,30c-12.3,12.6-22.2,27.5-29.7,44.5
		C49.3,163,44.4,181.2,42,200.7h208.4l-4.6,8.7H41c-0.3,4.1-0.6,8.2-0.8,12.3c-0.2,4.1-0.3,8.2-0.3,12.3c0,8.9,0.5,17.8,1.5,26.6
		H235l-4.6,8.7H42.5c3.1,18.4,8.4,35.9,16.1,52.5c7.7,16.6,17.5,31.1,29.4,43.5c11.9,12.5,26,22.3,42.2,29.4
		c16.2,7.2,34.2,10.8,54,10.8c42.7,0,78-16.6,106-49.7v13.8C260.6,399.3,224.8,414.2,182.8,414.2z"/>
</g>
</svg>
