<?xml version="1.0" encoding="utf-8"?>
<!-- Generator: Adobe Illustrator 18.0.0, SVG Export Plug-In . SVG Version: 6.00 Build 0)  -->
<!DOCTYPE svg PUBLIC "-//W3C//DTD SVG 1.1 Tiny//EN" "http://www.w3.org/Graphics/SVG/1.1/DTD/svg11-tiny.dtd">
<svg version="1.1" baseProfile="tiny" id="Layer_1" xmlns="http://www.w3.org/2000/svg" xmlns:xlink="http://www.w3.org/1999/xlink"
	 x="0px" y="0px" viewBox="0 0 284.7 512" xml:space="preserve">
<g>
	<path d="M151.6,230.4H75.3c5.8,10.6,9.8,21.8,12,33.8c2.2,12,3.3,23.9,3.3,35.8c0,19.5-4.5,37.3-13.6,53.5
		c-9,16.2-21.4,31-37.1,44.3l1,1c6.5-4.8,14.2-9.1,23-13.1c8.9-3.9,18.6-5.9,29.2-5.9c8.5,0,17.1,1.4,25.6,4.1
		c8.5,2.7,16.9,5.5,25.1,8.2c8.5,3.4,16.9,6.5,25.1,9.2c8.2,2.7,16.2,4.1,24.1,4.1c8.2,0,15.7-1,22.5-3.1c6.8-2,13.3-5,19.5-9
		c6.1-3.9,12.1-8.4,17.9-13.6c5.8-5.1,11.9-10.8,18.4-16.9l6.7,7.2c-15,17.1-29,28.8-42,35.3c-13,6.5-27.3,9.7-43,9.7
		c-8.5,0-17.1-1.3-25.6-3.8c-8.5-2.6-17.1-5.4-25.6-8.4c-8.5-2.7-16.8-5.5-24.8-8.4c-8-2.9-16-4.4-23.8-4.4c-12,0-23.1,2.3-33.5,6.9
		c-10.4,4.6-20.6,10.7-30.5,18.2l-9.2-9.7c16.7-14.3,31-30.4,42.8-48.1c11.8-17.7,17.7-36.9,17.7-57.3c0-13-1.5-25.6-4.4-37.9
		c-2.9-12.3-6.9-22.9-12-31.7H25.1v-10.2h33.8c-3.4-6.5-7.2-13.5-11.3-21c-4.1-7.5-7.9-15.2-11.5-23c-3.6-7.8-6.7-15.9-9.2-24.1
		S23,135.8,23,128c0-16.4,3.2-30.5,9.7-42.5c6.5-11.9,15.1-21.8,25.9-29.7c10.8-7.8,23.1-13.6,37.1-17.4c14-3.8,28.3-5.6,43-5.6
		c19.5,0,36.9,3,52.5,9c15.5,6,28.5,14.5,38.9,25.6c10.4,11.1,17.9,24.6,22.5,40.4c4.6,15.9,5.9,33.7,3.8,53.5h-10.2
		c1.7-19.1,0.3-36-4.4-50.7c-4.6-14.7-11.7-27-21.2-37.1c-9.6-10.1-21.3-17.7-35.3-22.8c-14-5.1-29.5-7.7-46.6-7.7
		c-13.3,0-26.3,1.6-38.9,4.9C87.2,51.1,75.9,56.1,66,62.9c-9.9,6.8-17.8,15.6-23.8,26.4c-6,10.8-9,23.6-9,38.7
		c0,7.9,1.3,15.8,3.8,23.8c2.6,8,5.8,16,9.7,23.8c3.9,7.9,8,15.5,12.3,23c4.3,7.5,8.1,14.7,11.5,21.5h80.9V230.4z"/>
</g>
</svg>
