<?xml version="1.0" encoding="utf-8"?>
<!-- Generator: Adobe Illustrator 18.0.0, SVG Export Plug-In . SVG Version: 6.00 Build 0)  -->
<!DOCTYPE svg PUBLIC "-//W3C//DTD SVG 1.1 Tiny//EN" "http://www.w3.org/Graphics/SVG/1.1/DTD/svg11-tiny.dtd">
<svg version="1.1" baseProfile="tiny" id="Layer_1" xmlns="http://www.w3.org/2000/svg" xmlns:xlink="http://www.w3.org/1999/xlink"
	 x="0px" y="0px" viewBox="0 0 280 512" xml:space="preserve">
<g>
	<path d="M189.4,143.8v3.6c0,15.7-4.1,29.2-12.3,40.4c-8.2,11.3-18.4,20.5-30.5,27.6c-12.1,7.2-25,12.4-38.7,15.6
		c-13.7,3.2-25.9,4.9-36.9,4.9l127.5,171h-11.8L96.3,286.7c-8.2-10.9-14.8-19.9-20-26.9c-5.1-7-9.7-12.5-13.8-16.4
		c-4.1-3.9-8.4-6.7-12.8-8.2c-4.4-1.5-10.4-2.3-17.9-2.3v-6.1H62c14.3,0,28.5-1.7,42.5-5.1c14-3.4,26.5-8.4,37.6-15.1
		c11.1-6.7,20-14.9,26.9-24.8c6.8-9.9,10.2-21.2,10.2-33.8v-4.1H22.5l4.6-7.2h151.6c-2-21.8-10.1-38.9-24.1-51.2
		c-14-12.3-35.2-18.8-63.5-19.5H22.5l4.6-7.2H257l-4.6,7.2H140.8c15.7,6.1,27.3,15.4,34.8,27.6c7.5,12.3,11.9,26.6,13.3,43H257
		l-4.6,7.2H189.4z"/>
</g>
</svg>
