<?xml version="1.0" encoding="utf-8"?>
<!-- Generator: Adobe Illustrator 18.0.0, SVG Export Plug-In . SVG Version: 6.00 Build 0)  -->
<!DOCTYPE svg PUBLIC "-//W3C//DTD SVG 1.1 Tiny//EN" "http://www.w3.org/Graphics/SVG/1.1/DTD/svg11-tiny.dtd">
<svg version="1.1" baseProfile="tiny" id="Layer_1" xmlns="http://www.w3.org/2000/svg" xmlns:xlink="http://www.w3.org/1999/xlink"
	 x="0px" y="0px" viewBox="0 0 284.7 512" xml:space="preserve">
<g>
	<path d="M60.9,407v-89.6h-43v-10.2h43v-67.6h-43v-10.2h43V58.8H149c16,0,30.9,1.6,44.5,4.9c13.6,3.2,25.4,8.5,35.3,15.9
		c9.9,7.3,17.7,16.8,23.3,28.4c5.6,11.6,8.4,25.6,8.4,42c0,16-3.1,29.8-9.2,41.2c-6.1,11.4-14.4,20.7-24.8,27.9
		c-10.4,7.2-22.7,12.4-36.9,15.6c-14.2,3.2-29.4,4.9-45.8,4.9H71.2v67.6h88.1v10.2H71.2V407H60.9z M71.2,229.3h74.2
		c14.7,0,28.4-1.5,41.2-4.6c12.8-3.1,24-7.8,33.5-14.1c9.6-6.3,17-14.5,22.3-24.6c5.3-10.1,7.9-22.1,7.9-36.1
		c0-14.3-2.6-26.5-7.7-36.6c-5.1-10.1-12.3-18.4-21.5-25.1c-9.2-6.7-20-11.5-32.3-14.6c-12.3-3.1-25.6-4.6-39.9-4.6H71.2V229.3z"/>
</g>
</svg>
