<?xml version="1.0" encoding="utf-8"?>
<!-- Generator: Adobe Illustrator 18.0.0, SVG Export Plug-In . SVG Version: 6.00 Build 0)  -->
<!DOCTYPE svg PUBLIC "-//W3C//DTD SVG 1.1 Tiny//EN" "http://www.w3.org/Graphics/SVG/1.1/DTD/svg11-tiny.dtd">
<svg version="1.1" baseProfile="tiny" id="Layer_1" xmlns="http://www.w3.org/2000/svg" xmlns:xlink="http://www.w3.org/1999/xlink"
	 x="0px" y="0px" viewBox="0 0 639 512" xml:space="preserve">
<g>
	<path d="M220.7,41.4L357.4,407h-83.5l-27.6-81.4H109.5L80.9,407H0L138.2,41.4H220.7z M225.3,265.7l-46.1-134.1h-1l-47.6,134.1
		H225.3z"/>
	<path d="M441.3,334.3c10.6,11.3,23.7,18.4,39.4,21.5v-107c-1.7-0.7-4-1.4-6.9-2.3c-2.9-0.8-6.1-1.6-9.5-2.3
		c-12.6-3.4-25.1-7.4-37.4-12s-23.3-10.8-33-18.4c-9.7-7.7-17.5-17.2-23.3-28.7c-5.8-11.4-8.7-25.7-8.7-42.8
		c0-17.4,3.3-32.8,10-46.1s15.4-24.5,26.4-33.5c10.9-9,23.6-16,37.9-21c14.3-4.9,29.2-7.9,44.5-9V-6.7H511v39.4
		c15.4,1.7,29.8,5,43.3,10c13.5,5,25.3,11.8,35.6,20.5s18.6,19.5,25.1,32.5c6.5,13,10.2,28.3,11.3,46.1h-72.7
		c-0.3-13.6-4.6-25.3-12.8-34.8c-8.2-9.6-18.1-14.3-29.7-14.3v90.6c4.1,1,8.3,2,12.5,3.1c4.3,1,8.8,2.2,13.6,3.6
		c25.3,6.8,44.7,15.3,58.4,25.3c13.6,10.1,23.7,20.6,30.2,31.5c6.5,10.9,10.3,21.8,11.5,32.8c1.2,10.9,1.8,20.7,1.8,29.2
		c0,7.5-1.9,17-5.6,28.4c-3.8,11.4-10.5,22.6-20.2,33.5c-9.7,10.9-22.8,20.7-39.2,29.2s-37.4,13.6-63,15.4v43.5h-30.2v-43.5
		c-38.2-2.7-68.1-14.5-89.6-35.3c-21.5-20.8-34-51.4-37.4-91.6H426C425.6,307.7,430.7,323,441.3,334.3z M463.9,95.2
		c-5.5,1.7-10.4,4.4-14.8,7.9c-4.4,3.6-7.9,8-10.5,13.3c-2.6,5.3-3.8,11.5-3.8,18.7c0,11.3,3.6,20,10.8,26.1
		c7.2,6.1,18.9,11.1,35.3,14.8V92.6C474.9,92.6,469.3,93.5,463.9,95.2z M530.2,351.4c6.7-2.2,12.6-5.4,17.9-9.5
		c5.3-4.1,9.6-9.1,13.1-15.1c3.4-6,5.1-13.1,5.1-21.2c0-13.3-4.2-23.3-12.5-30c-8.4-6.7-22.6-12.7-42.8-18.2v98.3
		C517.1,355.1,523.5,353.7,530.2,351.4z"/>
</g>
</svg>
