<?xml version="1.0" encoding="utf-8"?>
<!-- Generator: Adobe Illustrator 18.0.0, SVG Export Plug-In . SVG Version: 6.00 Build 0)  -->
<!DOCTYPE svg PUBLIC "-//W3C//DTD SVG 1.1 Tiny//EN" "http://www.w3.org/Graphics/SVG/1.1/DTD/svg11-tiny.dtd">
<svg version="1.1" baseProfile="tiny" id="Layer_1" xmlns="http://www.w3.org/2000/svg" xmlns:xlink="http://www.w3.org/1999/xlink"
	 x="0px" y="0px" viewBox="0 0 360.5 512" xml:space="preserve">
<path d="M324.9,242.4c-11.1-16.2-27.9-27.6-50.4-34c16.4-7.8,28.8-17.9,37.1-30.2c8.4-12.3,12.5-27.6,12.5-46.1
	c0-17.1-2.8-31.4-8.4-43c-5.6-11.6-13.6-20.9-23.8-27.9c-10.2-7-22.5-12-36.9-15.1c-13.1-2.8-27.4-4.3-43-4.6V-6.7h-30.2v48.1h-58.4
	V-6.7H93.2v48.1H35.3V407h57.9v51.7h30.2V407h58.4v51.7H212V407h0.5c16.4,0,32.3-2,47.9-6.1c15.5-4.1,29.4-10.4,41.5-18.9
	c12.1-8.5,21.8-19.5,28.9-33c7.2-13.5,10.8-29.4,10.8-47.9C341.5,278.2,336,258.6,324.9,242.4z M241.7,124.9
	c3.1,5.5,4.6,12.5,4.6,21c0,15.4-4.6,26.5-13.8,33.3c-9.2,6.8-21,10.2-35.3,10.2h-81.4v-85.5H191c7.2,0,14.1,0.6,20.7,1.8
	c6.7,1.2,12.5,3.3,17.7,6.4C234.5,115.2,238.6,119.4,241.7,124.9z M256.3,320c-3.2,6.1-7.6,11-13.1,14.6c-5.5,3.6-11.8,6.1-18.9,7.7
	c-7.2,1.5-14.7,2.3-22.5,2.3h-86V244.2h87.6c17.4,0,31.4,4,42,12c10.6,8,15.9,21.4,15.9,40.2C261.1,306,259.5,313.8,256.3,320z"/>
</svg>
