<?xml version="1.0" encoding="utf-8"?>
<!-- Generator: Adobe Illustrator 18.0.0, SVG Export Plug-In . SVG Version: 6.00 Build 0)  -->
<!DOCTYPE svg PUBLIC "-//W3C//DTD SVG 1.1 Tiny//EN" "http://www.w3.org/Graphics/SVG/1.1/DTD/svg11-tiny.dtd">
<svg version="1.1" baseProfile="tiny" id="Layer_1" xmlns="http://www.w3.org/2000/svg" xmlns:xlink="http://www.w3.org/1999/xlink"
	 x="0px" y="0px" viewBox="0 0 664.6 512" xml:space="preserve">
<g>
	<path d="M269.8,139c-4.8-7.7-10.8-14.4-17.9-20.2c-7.2-5.8-15.3-10.3-24.3-13.6c-9-3.2-18.5-4.9-28.4-4.9
		c-18.1,0-33.5,3.5-46.1,10.5c-12.6,7-22.9,16.4-30.7,28.2c-7.9,11.8-13.6,25.2-17.2,40.2c-3.6,15-5.4,30.6-5.4,46.6
		c0,15.4,1.8,30.3,5.4,44.8c3.6,14.5,9.3,27.6,17.2,39.2c7.8,11.6,18.1,20.9,30.7,27.9c12.6,7,28,10.5,46.1,10.5
		c24.6,0,43.8-7.5,57.6-22.5c13.8-15,22.3-34.8,25.3-59.4h77.8c-2,22.9-7.3,43.5-15.9,62c-8.5,18.4-19.8,34.1-33.8,47.1
		c-14,13-30.4,22.9-49.2,29.7c-18.8,6.8-39.4,10.2-62,10.2c-28,0-53.2-4.9-75.5-14.6c-22.4-9.7-41.2-23.1-56.6-40.2
		c-15.4-17.1-27.1-37.1-35.3-60.2c-8.2-23-12.3-47.9-12.3-74.5c0-27.3,4.1-52.6,12.3-76c8.2-23.4,20-43.8,35.3-61.2
		c15.4-17.4,34.2-31.1,56.6-41c22.4-9.9,47.5-14.8,75.5-14.8c20.1,0,39.2,2.9,57.1,8.7c17.9,5.8,34,14.3,48.1,25.3
		c14.2,11.1,25.9,24.8,35.1,41.2c9.2,16.4,15,35.2,17.4,56.3H279C277.7,155.1,274.6,146.6,269.8,139z"/>
	<path d="M466.9,334.3c10.6,11.3,23.7,18.4,39.4,21.5v-107c-1.7-0.7-4-1.4-6.9-2.3c-2.9-0.8-6.1-1.6-9.5-2.3
		c-12.6-3.4-25.1-7.4-37.4-12s-23.3-10.8-33-18.4c-9.7-7.7-17.5-17.2-23.3-28.7c-5.8-11.4-8.7-25.7-8.7-42.8
		c0-17.4,3.3-32.8,10-46.1s15.4-24.5,26.4-33.5c10.9-9,23.6-16,37.9-21c14.3-4.9,29.2-7.9,44.5-9V-6.7h30.2v39.4
		c15.4,1.7,29.8,5,43.3,10c13.5,5,25.3,11.8,35.6,20.5s18.6,19.5,25.1,32.5c6.5,13,10.2,28.3,11.3,46.1h-72.7
		c-0.3-13.6-4.6-25.3-12.8-34.8c-8.2-9.6-18.1-14.3-29.7-14.3v90.6c4.1,1,8.3,2,12.5,3.1c4.3,1,8.8,2.2,13.6,3.6
		c25.3,6.8,44.7,15.3,58.4,25.3c13.6,10.1,23.7,20.6,30.2,31.5c6.5,10.9,10.3,21.8,11.5,32.8c1.2,10.9,1.8,20.7,1.8,29.2
		c0,7.5-1.9,17-5.6,28.4c-3.8,11.4-10.5,22.6-20.2,33.5c-9.7,10.9-22.8,20.7-39.2,29.2s-37.4,13.6-63,15.4v43.5h-30.2v-43.5
		c-38.2-2.7-68.1-14.5-89.6-35.3c-21.5-20.8-34-51.4-37.4-91.6h72.2C451.2,307.7,456.4,323,466.9,334.3z M489.5,95.2
		c-5.5,1.7-10.4,4.4-14.8,7.9c-4.4,3.6-7.9,8-10.5,13.3c-2.6,5.3-3.8,11.5-3.8,18.7c0,11.3,3.6,20,10.8,26.1
		c7.2,6.1,18.9,11.1,35.3,14.8V92.6C500.6,92.6,494.9,93.5,489.5,95.2z M555.8,351.4c6.7-2.2,12.6-5.4,17.9-9.5
		c5.3-4.1,9.6-9.1,13.1-15.1c3.4-6,5.1-13.1,5.1-21.2c0-13.3-4.2-23.3-12.5-30c-8.4-6.7-22.6-12.7-42.8-18.2v98.3
		C542.7,355.1,549.1,353.7,555.8,351.4z"/>
</g>
</svg>
