<?xml version="1.0" encoding="utf-8"?>
<!-- Generator: Adobe Illustrator 18.0.0, SVG Export Plug-In . SVG Version: 6.00 Build 0)  -->
<!DOCTYPE svg PUBLIC "-//W3C//DTD SVG 1.1 Tiny//EN" "http://www.w3.org/Graphics/SVG/1.1/DTD/svg11-tiny.dtd">
<svg version="1.1" baseProfile="tiny" id="Layer_1" xmlns="http://www.w3.org/2000/svg" xmlns:xlink="http://www.w3.org/1999/xlink"
	 x="0px" y="0px" viewBox="0 0 294.9 512" xml:space="preserve">
<g>
	<path d="M196.6,103.9c-35.8,0-59.7,23.4-71.7,70.1h124.9L234,210.9H119.3l-0.5,21.5h109.1L212,269.3h-89.1
		c10.9,53.9,36.2,80.9,75.8,80.9c25.6,0,51.9-10.8,78.8-32.3l-0.5,77.3c-22.9,13.3-49.2,20-78.8,20c-43,0-77.7-13.8-103.9-41.5
		C70.3,348.8,54.8,314,47.6,269.3H8.2l15.9-36.9h20.5v-13.3c0-4.8,0.2-7.5,0.5-8.2H7.7L23.6,174h26.1c8.2-41.3,25.1-73.9,50.7-97.8
		c27-25.9,60.8-38.9,101.4-38.9c28.7,0,59.7,8.5,93.2,25.6l-31.2,64C239.8,111.6,217.4,103.9,196.6,103.9z"/>
</g>
</svg>
