<?xml version="1.0" encoding="utf-8"?>
<!-- Generator: Adobe Illustrator 18.0.0, SVG Export Plug-In . SVG Version: 6.00 Build 0)  -->
<!DOCTYPE svg PUBLIC "-//W3C//DTD SVG 1.1 Tiny//EN" "http://www.w3.org/Graphics/SVG/1.1/DTD/svg11-tiny.dtd">
<svg version="1.1" baseProfile="tiny" id="Layer_1" xmlns="http://www.w3.org/2000/svg" xmlns:xlink="http://www.w3.org/1999/xlink"
	 x="0px" y="0px" viewBox="0 0 290.3 512" xml:space="preserve">
<g>
	<path d="M34.6,352.5c7-6,13.1-12.5,18.4-19.7c5.3-7.2,9.6-14.9,13.1-23.3c3.4-8.4,5.1-17.2,5.1-26.4c0-5.8-0.9-11.5-2.8-17.2
		c-1.9-5.6-4.2-11.3-6.9-17.2H10.8v-43.5h32.8c-5.1-6.5-10.2-16-15.4-28.7c-5.1-12.6-7.7-26.6-7.7-42c0-13.6,2.8-26.6,8.4-38.9
		c5.6-12.3,13.9-23.1,24.8-32.5c10.9-9.4,24.6-16.8,41-22.3c16.4-5.5,35.3-8.2,56.8-8.2c39.2,0,69.8,10.9,91.6,32.8
		C265,87.3,276,119.1,276,160.7h-69.1c-0.3-5.1-1-11.5-2-19.2c-1-7.7-3.3-15.1-6.9-22.3c-3.6-7.2-9-13.4-16.4-18.7
		c-7.3-5.3-17.5-7.9-30.5-7.9c-15.4,0-27.6,4.3-36.6,12.8c-9,8.5-13.6,20-13.6,34.3c0,4.1,0.2,8,0.5,11.8c0.3,3.8,1.1,8.1,2.3,13.1
		c1.2,5,3.2,10.7,6.1,17.2c2.9,6.5,6.9,14.3,12,23.6H190v43.5h-53.8c1.7,5.1,2.8,10.2,3.3,15.4c0.5,5.1,0.8,10.6,0.8,16.4
		c0,16-4.2,29.8-12.5,41.2c-8.4,11.4-18.2,21.6-29.4,30.5l1,1c8.2-5.1,14.8-8.4,20-9.7c5.1-1.4,10.1-2,14.8-2
		c6.8,0,13.6,0.6,20.2,1.8c6.7,1.2,13.4,2.5,20.2,3.8c6.8,1.7,13.5,3.2,20,4.4c6.5,1.2,13.1,1.8,20,1.8c6.8,0,13.7-1.2,20.7-3.6
		c7-2.4,15.1-8.5,24.3-18.4l30.7,51.7c-12.3,12-25.4,20.3-39.4,25.1c-14,4.8-27.5,7.2-40.4,7.2c-13,0-23.7-0.9-32.3-2.6
		c-8.5-1.7-16.4-3.8-23.6-6.1c-7.5-2.7-15-5.1-22.5-7.2c-7.5-2-16.9-3.1-28.2-3.1c-9.2,0-18.9,1.3-28.9,3.8
		c-10.1,2.6-20.1,7.6-30,15.1l-31.7-47.1C20.5,363.7,27.6,358.4,34.6,352.5z"/>
</g>
</svg>
