<?xml version="1.0" encoding="utf-8"?>
<!-- Generator: Adobe Illustrator 18.0.0, SVG Export Plug-In . SVG Version: 6.00 Build 0)  -->
<!DOCTYPE svg PUBLIC "-//W3C//DTD SVG 1.1 Tiny//EN" "http://www.w3.org/Graphics/SVG/1.1/DTD/svg11-tiny.dtd">
<svg version="1.1" baseProfile="tiny" id="Layer_1" xmlns="http://www.w3.org/2000/svg" xmlns:xlink="http://www.w3.org/1999/xlink"
	 x="0px" y="0px" viewBox="0 0 283.1 512" xml:space="preserve">
<g>
	<path d="M210.9,173.5c-5.5,20.8-15.7,36.8-30.7,47.9c-15,11.1-31.7,19.2-50.2,24.3L252.4,407h-84l-86-115.2
		c-9.9-13.3-18.9-23-26.9-28.9c-8-6-16.5-9-25.3-9h-4.6v-42.5h30.2c9.2,0,18.2-0.4,26.9-1.3c8.7-0.8,16.7-2.6,24.1-5.1
		c7.3-2.6,13.8-6.3,19.5-11.3c5.6-4.9,9.8-11.7,12.5-20.2H16.4L31.7,128h108c-3.1-11.6-9.4-20-18.9-25.1c-9.6-5.1-22.5-8-38.9-8.7
		H16.4l15.4-45.6h229.4l-15.4,45.6h-43c5.5,10.2,9,21.5,10.8,33.8h47.6l-15.4,45.6H210.9z"/>
</g>
</svg>
