<?xml version="1.0" encoding="utf-8"?>
<!-- Generator: Adobe Illustrator 18.0.0, SVG Export Plug-In . SVG Version: 6.00 Build 0)  -->
<!DOCTYPE svg PUBLIC "-//W3C//DTD SVG 1.1 Tiny//EN" "http://www.w3.org/Graphics/SVG/1.1/DTD/svg11-tiny.dtd">
<svg version="1.1" baseProfile="tiny" id="Layer_1" xmlns="http://www.w3.org/2000/svg" xmlns:xlink="http://www.w3.org/1999/xlink"
	 x="0px" y="0px" viewBox="0 0 283.1 512" xml:space="preserve">
<g>
	<path d="M11.8,218.6h42.5v-170h95.2c22.9,0,42.3,3.2,58.4,9.5c16,6.3,29.1,14.7,39.2,25.1c10.1,10.4,17.4,22.5,22,36.4
		c4.6,13.8,6.9,28.1,6.9,42.8c0,15-2.3,29.2-6.9,42.5c-4.6,13.3-12,25.1-22,35.3c-10.1,10.2-23.1,18.4-39.2,24.3
		c-16,6-35.5,9-58.4,9h-28.7v38.9h90.1V365h-90.1v42H54.3v-42H11.8v-52.7h42.5v-38.9H11.8V218.6z M142.8,218.6
		c9.2,0,17.8-0.8,25.9-2.3c8-1.5,15.1-4.4,21.2-8.4s10.9-9.8,14.3-17.2c3.4-7.3,5.1-16.8,5.1-28.4c0-11.6-1.7-21.3-5.1-29.2
		c-3.4-7.8-8.2-14.1-14.3-18.7s-13.2-7.8-21.2-9.7c-8-1.9-16.6-2.8-25.9-2.8h-22v116.7H142.8z"/>
</g>
</svg>
