<?xml version="1.0" encoding="utf-8"?>
<!-- Generator: Adobe Illustrator 18.0.0, SVG Export Plug-In . SVG Version: 6.00 Build 0)  -->
<!DOCTYPE svg PUBLIC "-//W3C//DTD SVG 1.1 Tiny//EN" "http://www.w3.org/Graphics/SVG/1.1/DTD/svg11-tiny.dtd">
<svg version="1.1" baseProfile="tiny" id="Layer_1" xmlns="http://www.w3.org/2000/svg" xmlns:xlink="http://www.w3.org/1999/xlink"
	 x="0px" y="0px" viewBox="0 0 322.6 512" xml:space="preserve">
<path d="M294.7,259.3c-7.7-11.8-16.4-21-26.1-27.6c-9.7-6.7-19-11.2-27.9-13.6c-8.9-2.4-14.5-3.4-16.9-3.1l-1-1
	c10.6-1.4,20.2-4.4,28.9-9c8.7-4.6,16.2-10.3,22.5-17.2c6.3-6.8,11.2-14.7,14.6-23.6c3.4-8.9,5.1-18.3,5.1-28.2
	c0-11.6-2-23.1-5.9-34.6c-3.9-11.4-10.3-21.6-19.2-30.5c-8.9-8.9-20.7-16-35.3-21.5c-10.1-3.8-21.9-6.2-35.5-7.4V7.6h-16.4v33.8
	c-1,0-1.9,0-2.9,0h-55.2V7.6h-16.4v33.8H32.3V407h74.8v53.8h16.4V407h55.2c1,0,1.9,0,2.9,0v53.8H198v-54.6c11.7-1,22.7-2.9,32.9-5.8
	c15.7-4.4,29.1-11,40.2-19.7c11.1-8.7,19.7-19.4,25.9-32c6.1-12.6,9.2-27.3,9.2-44C306.2,286.2,302.3,271.1,294.7,259.3z M54.8,60.9
	h123.9c12.3,0,24,1.2,35.1,3.6c11.1,2.4,20.9,6.4,29.4,12c8.5,5.6,15.4,13,20.5,22c5.1,9,7.7,20.2,7.7,33.5c0,22.5-7.7,40.7-23,54.5
	c-15.4,13.8-38.6,20.7-69.6,20.7H54.8V60.9z M255.7,366.8c-18.6,13.8-44.3,20.7-77.1,20.7H54.8V226.8h123.9
	c11.9,0,24.1,1.1,36.6,3.3c12.5,2.2,23.7,6.2,33.8,12c10.1,5.8,18.3,13.7,24.8,23.8c6.5,10.1,9.7,23,9.7,38.7
	C283.6,332.2,274.3,353,255.7,366.8z"/>
</svg>
