<?xml version="1.0" encoding="utf-8"?>
<!-- Generator: Adobe Illustrator 18.0.0, SVG Export Plug-In . SVG Version: 6.00 Build 0)  -->
<!DOCTYPE svg PUBLIC "-//W3C//DTD SVG 1.1 Tiny//EN" "http://www.w3.org/Graphics/SVG/1.1/DTD/svg11-tiny.dtd">
<svg version="1.1" baseProfile="tiny" id="Layer_1" xmlns="http://www.w3.org/2000/svg" xmlns:xlink="http://www.w3.org/1999/xlink"
	 x="0px" y="0px" viewBox="0 0 645.1 512" xml:space="preserve">
<g>
	<path d="M18.4,224.2c0-26.6,3.9-51.6,11.8-75c7.8-23.4,19.2-43.7,34-60.9C79.1,71,97.4,57.5,119,47.6c21.7-9.9,46.2-14.8,73.5-14.8
		c21.5,0,40.1,2.8,55.8,8.4c15.7,5.6,28.9,12.6,39.7,21c10.8,8.4,19.5,17.5,26.4,27.4c6.8,9.9,12,19.2,15.6,27.9s6.1,16.2,7.4,22.5
		c1.4,6.3,2,9.8,2,10.5h-22.5c-2.4-15.4-7.3-29.1-14.8-41.2c-7.5-12.1-16.9-22.4-28.2-31c-11.3-8.5-23.8-15-37.6-19.5
		c-13.8-4.4-28.4-6.7-43.8-6.7c-23.9,0-45.2,4.6-64,13.8c-18.8,9.2-34.6,21.6-47.6,37.1c-13,15.5-22.9,33.7-29.7,54.5
		c-6.8,20.8-10.2,43-10.2,66.6c0,23.6,3.4,45.7,10.2,66.6c6.8,20.8,16.7,39,29.7,54.5c13,15.5,28.8,27.9,47.6,37.1
		c18.8,9.2,40.1,13.8,64,13.8c17.7,0,34.4-3.7,49.9-11c15.5-7.3,29.1-17.1,40.7-29.2c11.6-12.1,20.9-26.1,27.9-42
		c7-15.9,11-32.3,12-49.4h22.5c-2,21.8-7.4,42-16.1,60.4s-19.8,34.4-33.3,47.9c-13.5,13.5-29.1,24-46.8,31.5
		c-17.8,7.5-36.7,11.3-56.8,11.3c-27.3,0-51.8-5-73.5-14.8c-21.7-9.9-39.9-23.5-54.8-40.7c-14.8-17.2-26.2-37.5-34-60.9
		C22.4,275.8,18.4,250.8,18.4,224.2z"/>
	<path d="M386,286.7c0,32.1,8.8,57.9,26.4,77.3c17.6,19.5,44.3,30.2,80.1,32.3V225.8l-24.1-5.6c-10.9-2.4-21.8-5.5-32.5-9.5
		c-10.8-3.9-20.5-9.2-29.2-15.9c-8.7-6.7-15.7-15.2-21-25.6c-5.3-10.4-7.9-23.5-7.9-39.2c0-5.8,0.8-13.9,2.6-24.3
		c1.7-10.4,6.4-20.9,14.1-31.5c7.7-10.6,19.1-19.9,34.3-27.9c15.2-8,36.4-12.5,63.7-13.6V7.6h16.4v25.1c35.5,0.7,63.8,9.9,85,27.6
		c21.2,17.8,32.4,46.1,33.8,85h-19.5c-2-33.4-11.8-57.3-29.2-71.4c-17.4-14.2-40.8-21.6-70.1-22.3v158.7l39.9,9.7
		c16.7,4.1,30.7,9.3,42,15.6c11.3,6.3,20.3,13.5,27.1,21.5c6.8,8,11.6,16.7,14.3,26.1c2.7,9.4,4.1,19.4,4.1,30
		c0,19.1-3.7,35.1-11,47.9c-7.3,12.8-17,23.2-28.9,31.2c-12,8-25.6,13.8-41,17.4c-15.4,3.6-30.9,5.5-46.6,5.9v45.1h-16.4v-45.1
		c-18.8-1.7-35.9-5.2-51.5-10.5c-15.5-5.3-28.8-13.1-39.7-23.3c-10.9-10.2-19.5-23.1-25.6-38.7c-6.1-15.5-9.2-34.4-9.2-56.6H386z
		 M492.5,205.8V52.2c-17.4,0.7-32.1,3.2-44,7.4c-12,4.3-21.8,9.8-29.4,16.6c-7.7,6.8-13.2,14.8-16.6,24.1
		c-3.4,9.2-5.1,19.1-5.1,29.7c0,12,2,21.9,5.9,30c3.9,8,9.2,14.7,15.9,20c6.7,5.3,14.5,9.6,23.6,12.8c9,3.2,18.7,6.1,28.9,8.4
		L492.5,205.8z M508.9,396.2c14.7,0,28.5-1.5,41.5-4.6c13-3.1,24.4-7.9,34.3-14.6c9.9-6.7,17.7-15.2,23.6-25.6
		c5.8-10.4,8.7-23.1,8.7-38.1c0-19.5-6.1-35.3-18.4-47.6c-12.3-12.3-31.7-21.8-58.4-28.7l-31.2-7.7V396.2z"/>
</g>
</svg>
