<?xml version="1.0" encoding="utf-8"?>
<!-- Generator: Adobe Illustrator 18.0.0, SVG Export Plug-In . SVG Version: 6.00 Build 0)  -->
<!DOCTYPE svg PUBLIC "-//W3C//DTD SVG 1.1 Tiny//EN" "http://www.w3.org/Graphics/SVG/1.1/DTD/svg11-tiny.dtd">
<svg version="1.1" baseProfile="tiny" id="Layer_1" xmlns="http://www.w3.org/2000/svg" xmlns:xlink="http://www.w3.org/1999/xlink"
	 x="0px" y="0px" viewBox="0 0 284.7 512" xml:space="preserve">
<g>
	<path d="M260.6,121.8c-3.4-11.3-8.3-20.4-14.6-27.4c-6.3-7-12.4-12.4-18.2-16.1c-9.6-6.1-19.1-10-28.7-11.5
		c-9.6-1.5-18.4-2.3-26.6-2.3c-3.8,0-8.5,0.2-14.3,0.5c-5.8,0.3-12.1,1.5-18.9,3.3c-6.8,1.9-14,4.7-21.5,8.4
		c-7.5,3.8-14.7,9.2-21.5,16.4c-5.8,5.8-10.8,12.5-15.1,20.2c-4.3,7.7-7.9,15.7-11,24.1c-3.1,8.4-5.5,16.8-7.2,25.3
		c-1.7,8.5-2.9,16.6-3.6,24.1h170l-7.7,16.9H57.9c-0.3,4.4-0.6,8.8-0.8,13.1c-0.2,4.3-0.3,8.4-0.3,12.5c0,4.1,0.1,8.1,0.3,12
		c0.2,3.9,0.4,7.8,0.8,11.5h144.9l-7.7,16.9H59.9c1.4,13.3,4.3,27.3,8.7,42c4.4,14.7,10.8,28,18.9,39.9c6.8,10.2,14.2,18.4,22,24.3
		c7.8,6,15.6,10.4,23.3,13.3c7.7,2.9,15.1,4.8,22.3,5.6c7.2,0.9,13.6,1.3,19.5,1.3c7.8,0,16-0.7,24.6-2c8.5-1.4,16.7-3.6,24.6-6.7
		c6.8-2.7,14-6.6,21.5-11.5c7.5-4.9,14.8-11.5,22-19.7v23.6c-4.8,4.4-10,8.5-15.6,12.3c-5.6,3.8-12.2,7-19.7,9.7
		c-8.9,3.8-18.6,6.6-29.2,8.4c-10.6,1.9-20.8,2.8-30.7,2.8c-21.8,0-41.3-4.3-58.4-12.8c-17.1-8.5-31.2-21-42.5-37.4
		c-9.2-13-16.5-27.8-21.8-44.5c-5.3-16.7-8.6-32.9-10-48.6H6.1l7.7-16.9h24.6c-1.7-17.4-1.7-33.8,0-49.2H6.1l7.7-16.9h25.6
		c0.7-9.2,2.1-18.9,4.4-28.9c2.2-10.1,5.2-20,9-29.7c3.8-9.7,8.5-19,14.3-27.9c5.8-8.9,12.6-16.7,20.5-23.6
		c7.8-6.8,15.8-12.2,23.8-16.1c8-3.9,15.8-6.8,23.3-8.7c7.5-1.9,14.5-3.1,21-3.6c6.5-0.5,12.1-0.8,16.9-0.8
		c10.6,0,21.5,0.9,32.8,2.8c11.3,1.9,22,6.1,32.3,12.5c6.1,3.8,12.3,8.8,18.4,15.1c6.1,6.3,11.3,14.4,15.4,24.3L260.6,121.8z"/>
</g>
</svg>
