<?xml version="1.0" encoding="utf-8"?>
<!-- Generator: Adobe Illustrator 18.0.0, SVG Export Plug-In . SVG Version: 6.00 Build 0)  -->
<!DOCTYPE svg PUBLIC "-//W3C//DTD SVG 1.1 Tiny//EN" "http://www.w3.org/Graphics/SVG/1.1/DTD/svg11-tiny.dtd">
<svg version="1.1" baseProfile="tiny" id="Layer_1" xmlns="http://www.w3.org/2000/svg" xmlns:xlink="http://www.w3.org/1999/xlink"
	 x="0px" y="0px" viewBox="0 0 284.7 512" xml:space="preserve">
<g>
	<path d="M25.6,221.1h30.7c-7.9-14.3-14.9-28.8-21.2-43.5c-6.3-14.7-9.5-30.2-9.5-46.6c0-16,3.2-30.2,9.5-42.5
		C41.4,76.2,49.9,66,60.7,57.8s23.1-14.4,37.1-18.7c14-4.3,28.7-6.4,44-6.4c40.3,0,70.7,10.4,91.1,31.2
		c20.5,20.8,30.2,52.6,29.2,95.2h-19.5c-0.3-35.2-8.4-61.8-24.1-79.9c-15.7-18.1-41.1-27.1-76.3-27.1c-30,0-53.8,6.8-71.2,20.5
		C53.8,86.3,45.1,105.4,45.1,130c0,9.2,1.1,17.9,3.3,26.1c2.2,8.2,5,16,8.4,23.3c3.4,7.3,7.1,14.5,11,21.5c3.9,7,7.4,13.7,10.5,20.2
		h81.9V238H88.1c3.4,5.1,6.2,12.4,8.4,21.8c2.2,9.4,3.3,20.6,3.3,33.5c0,9.9-1.5,19.5-4.4,28.7c-2.9,9.2-6.7,18.1-11.3,26.6
		c-4.6,8.5-10,16.4-16.1,23.6s-12.5,13.5-18.9,18.9l1,1c7.5-5.1,15.2-9.5,23-13.1c7.8-3.6,16.2-5.4,25.1-5.4
		c10.6,0,20.1,1.2,28.7,3.6c8.5,2.4,16.7,5.1,24.6,8.2c7.8,2.7,15.5,5.2,23,7.4c7.5,2.2,15.4,3.3,23.6,3.3
		c15.4,0,28.3-3.6,38.9-10.8c10.6-7.2,20.6-15.2,30.2-24.1l11.3,16.9c-9.9,10.6-21.4,19.5-34.6,26.6c-13.1,7.2-27.4,10.8-42.8,10.8
		c-10.6,0-20.3-1.2-29.2-3.6c-8.9-2.4-17.6-5-26.1-7.7c-8.2-2.7-16.3-5.3-24.3-7.7c-8-2.4-16.3-3.6-24.8-3.6
		c-13,0-23.8,2.1-32.5,6.4c-8.7,4.3-18.4,9.6-28.9,16.1l-12.8-17.4c7.2-6.8,14.2-14.1,21.2-21.8c7-7.7,13.1-15.9,18.4-24.6
		c5.3-8.7,9.6-18,13.1-27.9c3.4-9.9,5.1-20.5,5.1-31.7c0-10.2-1.4-20.1-4.1-29.7c-2.7-9.6-6.3-17.7-10.8-24.6H25.6V221.1z"/>
</g>
</svg>
