<?xml version="1.0" encoding="utf-8"?>
<!-- Generator: Adobe Illustrator 18.0.0, SVG Export Plug-In . SVG Version: 6.00 Build 0)  -->
<!DOCTYPE svg PUBLIC "-//W3C//DTD SVG 1.1 Tiny//EN" "http://www.w3.org/Graphics/SVG/1.1/DTD/svg11-tiny.dtd">
<svg version="1.1" baseProfile="tiny" id="Layer_1" xmlns="http://www.w3.org/2000/svg" xmlns:xlink="http://www.w3.org/1999/xlink"
	 x="0px" y="0px" viewBox="0 0 277 512" xml:space="preserve">
<g>
	<path d="M213,407h-21.5L78.3,254.9c-2.7-3.4-5.2-6.3-7.4-8.7c-2.2-2.4-5-4.3-8.2-5.6c-3.2-1.4-7.5-2.3-12.8-2.8
		c-5.3-0.5-12-0.8-20.2-0.8v-14.3h28.2c17.7,0,33-1.9,45.8-5.6c12.8-3.8,23.6-9,32.3-15.6c8.7-6.7,15.4-14.8,20.2-24.3
		c4.8-9.6,7.7-20.1,8.7-31.7H24.1l9.7-14.8h131.1c-1.7-7.5-4.8-15.2-9.2-23c-4.4-7.8-10.4-14.9-17.9-21.2
		c-7.5-6.3-16.3-11.4-26.4-15.4C101.3,67,89.9,65,77.3,65H24.6l9.7-14.8h221.2L245.8,65H133.1c7.2,3.1,13.6,7.2,19.2,12.3
		c5.6,5.1,10.6,10.6,14.8,16.4c4.3,5.8,7.8,11.9,10.5,18.2c2.7,6.3,4.4,12.5,5.1,18.7H255l-9.7,14.8h-63c-1,14.3-4.3,26.8-9.7,37.4
		c-5.5,10.6-12.5,19.7-21,27.4c-8.5,7.7-18.2,13.8-28.9,18.4s-22.3,7.9-34.6,10L213,407z"/>
</g>
</svg>
