<?xml version="1.0" encoding="utf-8"?>
<!-- Generator: Adobe Illustrator 18.0.0, SVG Export Plug-In . SVG Version: 6.00 Build 0)  -->
<!DOCTYPE svg PUBLIC "-//W3C//DTD SVG 1.1 Tiny//EN" "http://www.w3.org/Graphics/SVG/1.1/DTD/svg11-tiny.dtd">
<svg version="1.1" baseProfile="tiny" id="Layer_1" xmlns="http://www.w3.org/2000/svg" xmlns:xlink="http://www.w3.org/1999/xlink"
	 x="0px" y="0px" viewBox="0 0 283.1 512" xml:space="preserve">
<g>
	<path d="M80.9,317.9V407H61.4v-89.1H15.9v-16.4h45.6v-52.2H15.9v-17.4h45.6V53.7h93.7c14.7,0,28.7,1.8,42,5.4s25.1,9.2,35.3,16.9
		c10.2,7.7,18.3,17.8,24.3,30.2c6,12.5,9,27.4,9,44.8c0,15.4-2.7,29.2-8.2,41.5c-5.5,12.3-13.1,22.6-22.8,31
		c-9.7,8.4-21.5,14.8-35.3,19.2c-13.8,4.4-28.9,6.7-45.3,6.7H80.9v52.2h72.2v16.4H80.9z M80.9,231.9h74.2c16,0,29.8-2,41.2-6.1
		c11.4-4.1,20.7-9.8,27.9-17.2c7.2-7.3,12.5-16,15.9-25.9c3.4-9.9,5.1-20.6,5.1-32.3c0-9.9-1.6-19.6-4.9-29.2
		c-3.2-9.6-8.4-18.2-15.6-25.9c-7.2-7.7-16.5-13.8-27.9-18.4c-11.4-4.6-25.3-6.9-41.7-6.9H80.9V231.9z"/>
</g>
</svg>
