<?xml version="1.0" encoding="utf-8"?>
<!-- Generator: Adobe Illustrator 18.0.0, SVG Export Plug-In . SVG Version: 6.00 Build 0)  -->
<!DOCTYPE svg PUBLIC "-//W3C//DTD SVG 1.1 Tiny//EN" "http://www.w3.org/Graphics/SVG/1.1/DTD/svg11-tiny.dtd">
<svg version="1.1" baseProfile="tiny" id="Layer_1" xmlns="http://www.w3.org/2000/svg" xmlns:xlink="http://www.w3.org/1999/xlink"
	 x="0px" y="0px" viewBox="0 0 284.7 513.1" xml:space="preserve">
<g>
	<path d="M25.6,287.7c0,32.1,8.8,57.9,26.4,77.3c17.6,19.5,44.3,30.2,80.1,32.3V226.8l-24.1-5.6c-10.9-2.4-21.8-5.5-32.5-9.5
		c-10.8-3.9-20.5-9.2-29.2-15.9c-8.7-6.7-15.7-15.2-21-25.6c-5.3-10.4-7.9-23.5-7.9-39.2c0-5.8,0.8-13.9,2.6-24.3
		c1.7-10.4,6.4-20.9,14.1-31.5c7.7-10.6,19.1-19.9,34.3-27.9c15.2-8,36.4-12.5,63.7-13.6V8.7h16.4v25.1c35.5,0.7,63.8,9.9,85,27.6
		c21.2,17.8,32.4,46.1,33.8,85h-19.5c-2-33.4-11.8-57.3-29.2-71.4c-17.4-14.2-40.8-21.6-70.1-22.3v158.7l39.9,9.7
		c16.7,4.1,30.7,9.3,42,15.6c11.3,6.3,20.3,13.5,27.1,21.5c6.8,8,11.6,16.7,14.3,26.1c2.7,9.4,4.1,19.4,4.1,30
		c0,19.1-3.7,35.1-11,47.9c-7.3,12.8-17,23.2-28.9,31.2c-12,8-25.6,13.8-41,17.4c-15.4,3.6-30.9,5.5-46.6,5.9v45.1h-16.4v-45.1
		c-18.8-1.7-35.9-5.2-51.5-10.5C65.1,401,51.9,393.2,41,383c-10.9-10.2-19.5-23.1-25.6-38.7c-6.1-15.5-9.2-34.4-9.2-56.6H25.6z
		 M132.1,206.8V53.2c-17.4,0.7-32.1,3.2-44,7.4c-12,4.3-21.8,9.8-29.4,16.6c-7.7,6.8-13.2,14.8-16.6,24.1
		c-3.4,9.2-5.1,19.1-5.1,29.7c0,12,2,21.9,5.9,30c3.9,8,9.2,14.7,15.9,20c6.7,5.3,14.5,9.6,23.6,12.8c9,3.2,18.7,6.1,28.9,8.4
		L132.1,206.8z M148.5,397.3c14.7,0,28.5-1.5,41.5-4.6c13-3.1,24.4-7.9,34.3-14.6c9.9-6.7,17.7-15.2,23.6-25.6
		c5.8-10.4,8.7-23.1,8.7-38.1c0-19.5-6.1-35.3-18.4-47.6c-12.3-12.3-31.7-21.8-58.4-28.7l-31.2-7.7V397.3z"/>
</g>
</svg>
